<?xml version="1.0" encoding="UTF-8"?>
<svg xmlns="http://www.w3.org/2000/svg" viewBox="0 0 1221.27 561.34">
  <defs>
    <style>
      .cls-1 {
        fill: #091a59;
      }

      .cls-2 {
        fill: #fff;
      }

      .cls-3, .cls-4 {
        opacity: .47;
      }

      .cls-5 {
        isolation: isolate;
      }

      .cls-6 {
        fill: #61ff4a;
      }

      .cls-7 {
        fill: #62ef80;
      }

      .cls-4 {
        mix-blend-mode: multiply;
      }

      .cls-8 {
        fill: #e8eae8;
      }
    </style>
  </defs>
  <g class="cls-5">
    <g id="Resume_Design" data-name="Resume Design">
      <g id="Resume_1st_page" data-name="Resume 1st page">
        <g id="Name_image_part" data-name="Name &amp;amp; image part">
          <g>
            <g>
              <path class="cls-8" d="M235.02,282.36c-.83,0-1.65-.07-2.45-.19-1.34.2-2.71.21-4.05.06-.59.07-1.2.1-1.8.1h-8.9c-7.56,0-14.57-3.76-18.75-10.07s-4.92-14.23-1.97-21.19l23.38-55.33c3.52-8.34,11.65-13.73,20.71-13.73h10.37c.08,0,.25,0,.38,0l41.76.09h0c8.74.02,16.32,5.35,19.29,13.57,2.98,8.22.56,17.16-6.14,22.77l-3.78,3.16c3.84,6.11,4.54,13.69,1.83,20.41,0,.01-6.88,17.04-7.76,19.27-5.1,12.78-17.29,21.04-31.05,21.05-11.66,0-27.1.03-30.39.03h-.66Z"/>
              <path class="cls-1" d="M235.02,278.86c-.83,0-1.64-.08-2.43-.25-1.35.26-2.73.28-4.08.08-.59.09-1.19.14-1.8.14h-8.9c-6.39,0-12.31-3.18-15.84-8.5s-4.15-12.01-1.67-17.9l23.38-55.33c2.98-7.04,9.84-11.59,17.48-11.59h10.37c.06,0,.22,0,.33,0l41.8.09h0c7.26.02,13.54,4.44,16.01,11.26s.47,14.24-5.1,18.9l-6.31,5.28c.54.61,1.04,1.27,1.51,1.96,3.52,5.24,4.21,11.86,1.85,17.71,0,0-6.88,17.05-7.77,19.28-4.57,11.45-15.48,18.84-27.8,18.84-11.66,0-27.11.03-30.4.03h-.65ZM293.63,209.61h0,0Z"/>
              <path class="cls-6" d="M293.65,197.61l-42.06-.09h-.04s-10.38,0-10.38,0c-2.81,0-5.34,1.68-6.43,4.26l-23.38,55.33c-1.95,4.62,1.44,9.73,6.45,9.73h8.9l9.19-13.05h-6.52c-1.17,0-1.96-1.19-1.5-2.27l16.73-39.41-7.9-2.18h42.74l-7.76,2.2-26.59,23.44c-.44.39-.16,1.12.43,1.12l15.9.07-11.35,3.1-19.75,26.98,36.32-30.09,8.31.02c1.6,0,2.64,1.7,1.9,3.12-1.29,2.51-3.14,6.09-4.66,8.98-1.59,3.02-4.73,4.92-8.15,4.92h-12.55l-16.47,13.08c.18,0,17.99-.03,31.05-.03,7.34,0,13.94-4.47,16.66-11.29.89-2.24,7.78-19.31,7.78-19.31,1.85-4.6-1.52-9.62-6.48-9.65l-20.88-.14.28-.02,12.67-2.47,20.78-17.39c3.63-3.03,1.49-8.94-3.24-8.95Z"/>
            </g>
            <path class="cls-1" d="M248.37,214.43l9.37,1.48-4.68,5.78-7.42,5.62s.78-8.04.78-8.27,1.95-4.61,1.95-4.61Z"/>
          </g>
          <g class="cls-4">
            <path class="cls-8" d="M197.88,357.27h0c-2.22,0-4.44-.27-6.58-.8-3.63.84-7.46.93-11.14.27-1.62.29-3.27.44-4.91.44h-24.25c-15.67,0-30.19-7.8-38.85-20.86-8.66-13.06-10.19-29.47-4.09-43.91l63.71-150.75c7.3-17.27,24.13-28.43,42.88-28.44,0,0,28.27,0,28.28,0,.29,0,.57,0,.86.01l113.93.26c17.58.04,32.8,10.74,38.78,27.27,5.98,16.53,1.14,34.5-12.34,45.78l-21.48,17.97c2.8,2.54,5.3,5.43,7.41,8.58,8.63,12.85,10.33,29.09,4.55,43.45-.18.45-18.77,46.52-21.17,52.55-5.68,14.25-15.4,26.33-28.1,34.93-12.7,8.61-27.52,13.16-42.86,13.16-20.61,0-50.03.03-82.84.08h-1.76ZM191.3,355.97s.04,0,.06,0c2.13.53,4.32.8,6.52.8h1.76c32.81-.05,62.23-.08,82.84-.09,15.24,0,29.96-4.52,42.58-13.07,12.62-8.55,22.27-20.55,27.92-34.71,2.41-6.02,20.99-52.1,21.18-52.55,5.72-14.2,4.03-30.27-4.5-42.99-2.15-3.2-4.69-6.12-7.55-8.68-.05-.05-.08-.12-.08-.19,0-.07.03-.14.09-.19l21.7-18.16c13.32-11.14,18.1-28.89,12.19-45.22s-20.95-26.9-38.31-26.94l-113.93-.26c-.29,0-.57-.01-.85-.01h-28.28c-18.55.01-35.2,11.06-42.42,28.14l-63.71,150.75c-6.03,14.28-4.52,30.52,4.04,43.44,8.57,12.92,22.93,20.63,38.44,20.63h24.25c1.63,0,3.27-.15,4.87-.44.03,0,.06,0,.09,0,3.65.67,7.44.57,11.04-.27.02,0,.04,0,.06,0Z"/>
            <path class="cls-1" d="M197.88,358.02c-2.22,0-4.44-.26-6.59-.78-3.64.82-7.46.91-11.14.26-1.62.28-3.27.43-4.91.43h-24.25c-15.92,0-30.68-7.92-39.48-21.19-8.8-13.27-10.35-29.95-4.15-44.61l63.71-150.75c7.42-17.55,24.52-28.89,43.57-28.9h28.28c.29,0,.59,0,.88,0l113.9.26c17.9.04,33.39,10.94,39.48,27.77,6.09,16.83,1.16,35.12-12.57,46.61l-20.82,17.42c2.59,2.44,4.91,5.17,6.9,8.13,8.76,13.06,10.49,29.56,4.62,44.15-.18.45-18.77,46.52-21.17,52.54-5.74,14.39-15.55,26.59-28.38,35.28-12.82,8.69-27.79,13.29-43.28,13.29-20.49,0-49.9.03-82.84.08h-1.76s0,0,0,0ZM191.3,355.22c.08,0,.16,0,.24.03,2.07.51,4.2.77,6.34.77h1.76c32.93-.05,62.35-.08,82.84-.09,15.09,0,29.67-4.48,42.16-12.94,12.49-8.47,22.05-20.35,27.64-34.36,2.41-6.03,21-52.1,21.18-52.55,5.62-13.97,3.97-29.78-4.43-42.29-2.11-3.15-4.61-6.02-7.42-8.54-.22-.19-.34-.47-.33-.76,0-.29.14-.56.36-.75l21.7-18.16c13.07-10.94,17.77-28.36,11.97-44.39s-20.56-26.41-37.61-26.45l-113.93-.26c-.3,0-.57-.01-.85-.01h-28.28c-18.25.01-34.63,10.88-41.73,27.68l-63.71,150.75c-5.94,14.05-4.45,30.02,3.98,42.73,8.43,12.71,22.56,20.3,37.81,20.3h24.25c1.58,0,3.18-.14,4.73-.43.12-.02.24-.02.36,0,3.54.65,7.24.56,10.74-.26.08-.02.15-.03.23-.03Z"/>
          </g>
          <g class="cls-3">
            <path class="cls-8" d="M212.35,324.53h0c-1.62,0-3.24-.2-4.82-.58-2.66.61-5.46.68-8.15.19-1.18.21-2.39.32-3.59.32h-17.73c-11.48,0-22.12-5.71-28.46-15.28-6.34-9.57-7.46-21.59-3-32.17l46.58-110.22c5.35-12.65,17.68-20.83,31.41-20.84h20.68c.21,0,.42,0,.63,0l83.3.19c12.88.03,24.04,7.87,28.42,19.99,4.38,12.11.83,25.28-9.05,33.54l-15.64,13.09c2.03,1.85,3.84,3.94,5.37,6.23,6.32,9.41,7.57,21.31,3.33,31.83l-.11.28c-3.22,7.97-13.83,34.28-15.37,38.14-4.16,10.43-11.27,19.27-20.57,25.57-9.3,6.3-20.15,9.63-31.38,9.63-14.78,0-36.29.02-60.57.06h-1.29ZM207.53,323.45s.04,0,.06,0c1.55.39,3.15.58,4.75.58h1.29c24.28-.04,45.79-.06,60.57-.06,11.13,0,21.88-3.3,31.1-9.55,9.21-6.24,16.26-15.01,20.39-25.35,1.54-3.86,12.15-30.17,15.37-38.14l.11-.28c4.17-10.37,2.94-22.09-3.29-31.37-1.57-2.33-3.42-4.46-5.51-6.33-.05-.05-.08-.12-.08-.19,0-.07.03-.14.09-.19l15.87-13.27c9.71-8.13,13.21-21.08,8.9-32.99-4.31-11.91-15.28-19.63-27.95-19.66l-83.3-.19c-.21,0-.42,0-.62,0h-20.68c-13.54,0-25.68,8.07-30.95,20.54l-46.58,110.22c-4.4,10.42-3.3,22.27,2.95,31.7,6.25,9.43,16.74,15.06,28.05,15.06h17.73c1.19,0,2.38-.11,3.55-.32.03,0,.06,0,.09,0,2.65.49,5.42.42,8.05-.19.02,0,.04,0,.06,0Z"/>
            <path class="cls-1" d="M212.35,325.28h0c-1.62,0-3.25-.19-4.82-.56-2.66.59-5.45.65-8.14.19-1.18.21-2.39.31-3.59.31h-17.73c-11.73,0-22.61-5.84-29.09-15.61-6.48-9.78-7.63-22.07-3.06-32.87l46.58-110.22c5.46-12.93,18.07-21.29,32.1-21.29h20.68c.22,0,.43,0,.65,0l83.28.19c13.2.03,24.63,8.07,29.12,20.48,4.49,12.41.85,25.9-9.27,34.38l-14.99,12.55c1.82,1.74,3.45,3.68,4.86,5.78,6.46,9.62,7.73,21.78,3.41,32.53l-.11.28c-3.22,7.97-13.83,34.28-15.37,38.14-4.22,10.57-11.43,19.53-20.85,25.92-9.42,6.39-20.42,9.76-31.8,9.76-14.98,0-36.49.02-60.57.06h-1.29ZM207.53,322.7c.08,0,.16,0,.24.03,1.49.37,3.03.56,4.57.56h1.29c24.08-.04,45.59-.06,60.57-.06,10.98,0,21.59-3.26,30.68-9.42s16.04-14.81,20.11-25c1.54-3.86,12.15-30.17,15.37-38.14l.11-.28c4.08-10.13,2.88-21.6-3.21-30.67-1.53-2.28-3.34-4.37-5.38-6.19-.22-.19-.34-.47-.33-.76,0-.29.14-.56.36-.75l15.87-13.27c9.47-7.92,12.88-20.55,8.67-32.16-4.2-11.61-14.9-19.13-27.25-19.16l-83.3-.19c-.23,0-.42,0-.62,0h-20.68c-13.23,0-25.11,7.89-30.26,20.08l-46.58,110.22c-4.31,10.19-3.23,21.77,2.88,30.99s16.36,14.72,27.42,14.72h17.73c1.14,0,2.29-.1,3.41-.31.12-.02.24-.02.36,0,2.56.47,5.22.4,7.74-.19.08-.02.15-.03.23-.03Z"/>
          </g>
          <g class="cls-3">
            <path class="cls-8" d="M222.14,306.38h0c-1.22,0-2.44-.15-3.62-.43-2,.46-4.11.51-6.12.15-.89.16-1.8.24-2.7.24h-13.32c-8.64,0-16.65-4.3-21.43-11.5-4.78-7.2-5.62-16.26-2.25-24.22l34.99-82.79c4.03-9.53,13.31-15.68,23.65-15.69h15.53c.16,0,.32,0,.47,0l62.56.14c9.7.02,18.1,5.93,21.4,15.05,3.3,9.12.63,19.04-6.81,25.26l-11.7,9.79c1.51,1.38,2.85,2.94,3.99,4.65,4.76,7.09,5.7,16.05,2.51,23.97l-.5,1.25c-6.62,16.42-10.37,25.71-11.12,27.61-3.13,7.85-8.48,14.5-15.47,19.24-6.99,4.74-15.15,7.25-23.6,7.25-11.25,0-27.41.02-45.49.05h-.97ZM218.52,305.44s.04,0,.06,0c1.16.29,2.36.43,3.55.43h.97c18.08-.03,34.24-.05,45.49-.05,8.35,0,16.41-2.48,23.32-7.16,6.91-4.68,12.2-11.25,15.29-19.01.76-1.9,4.5-11.19,11.12-27.61l.5-1.25c3.13-7.77,2.21-16.55-2.46-23.5-1.17-1.75-2.56-3.34-4.13-4.74-.05-.05-.08-.12-.08-.19,0-.07.03-.14.09-.19l11.92-9.97c7.28-6.09,9.89-15.79,6.66-24.71-3.23-8.92-11.45-14.7-20.93-14.72l-62.57-.14c-.16,0-.31,0-.46,0h-15.53c-10.14,0-19.24,6.04-23.19,15.39l-34.99,82.79c-3.3,7.81-2.47,16.68,2.21,23.75,4.68,7.06,12.54,11.28,21.01,11.28h13.32c.89,0,1.78-.08,2.65-.24.03,0,.06,0,.09,0,1.98.36,4.05.31,6.02-.15.02,0,.04,0,.06,0Z"/>
            <path class="cls-1" d="M222.14,307.13c-1.22,0-2.44-.14-3.62-.41-2,.44-4.1.48-6.11.14-.89.15-1.8.23-2.7.23h-13.32c-8.89,0-17.14-4.43-22.05-11.84-4.92-7.41-5.78-16.73-2.32-24.92l34.99-82.79c4.14-9.8,13.7-16.14,24.34-16.15h15.53c.17,0,.33,0,.5,0l62.54.14c10.02.02,18.7,6.12,22.11,15.55,3.41,9.42.65,19.66-7.04,26.09l-11.05,9.25c1.3,1.27,2.47,2.68,3.49,4.19,4.9,7.29,5.86,16.52,2.58,24.67l-.5,1.25c-2.09,5.17-9.98,24.75-11.12,27.6-3.19,7.99-8.63,14.76-15.75,19.58-7.12,4.82-15.42,7.38-24.02,7.38-11.25,0-27.41.02-45.49.05h-.97s0,0,0,0ZM218.52,304.69c.08,0,.16,0,.24.03,1.1.27,2.24.41,3.37.41h.97c18.09-.03,34.24-.05,45.49-.05,8.2,0,16.12-2.43,22.9-7.03,6.78-4.6,11.98-11.05,15.01-18.67,1.14-2.86,9.04-22.44,11.12-27.61l.5-1.25c3.03-7.54,2.14-16.06-2.39-22.81-1.14-1.7-2.49-3.24-4-4.6-.22-.19-.34-.47-.33-.76,0-.29.14-.56.36-.75l11.92-9.97c7.03-5.88,9.56-15.26,6.44-23.88-3.12-8.62-11.06-14.21-20.23-14.23l-62.57-.14c-.17,0-.32,0-.46,0h-15.53c-9.84,0-18.67,5.87-22.5,14.93l-34.99,82.79c-3.2,7.57-2.4,16.19,2.14,23.04s12.17,10.94,20.39,10.94h13.32c.84,0,1.69-.08,2.52-.23.12-.02.24-.02.36,0,1.88.34,3.85.3,5.71-.14.08-.02.15-.03.23-.03Z"/>
          </g>
          <g class="cls-4">
            <path class="cls-8" d="M180.25,397.18h0c-2.95,0-5.89-.36-8.74-1.06-4.83,1.12-9.91,1.24-14.8.35-2.15.39-4.34.59-6.52.59h-32.2c-20.78,0-40.04-10.34-51.52-27.65-11.48-17.32-13.51-39.08-5.42-58.22l84.59-200.16c9.68-22.9,32-37.7,56.86-37.71,0,0,37.54-.01,37.55-.01.38,0,.76,0,1.13.02l151.27.34c23.3.05,43.49,14.24,51.42,36.16,7.93,21.91,1.51,45.73-16.37,60.69l-28.59,23.92c3.75,3.39,7.08,7.23,9.9,11.44,11.44,17.04,13.69,38.58,6.03,57.62-.22.56-24.94,61.83-28.11,69.77-7.54,18.9-20.44,34.93-37.28,46.35-16.85,11.42-36.51,17.46-56.87,17.46-27.28,0-66.35.04-109.99.11h-2.34ZM171.51,395.62s.04,0,.06,0c2.83.7,5.75,1.06,8.68,1.06h2.34c43.64-.07,82.71-.11,109.99-.11,20.25,0,39.82-6.01,56.58-17.37,16.76-11.36,29.59-27.31,37.1-46.12,3.17-7.94,27.89-69.21,28.12-69.77,7.6-18.89,5.36-40.25-5.98-57.15-2.85-4.25-6.23-8.13-10.03-11.54-.05-.05-.08-.12-.08-.19,0-.07.03-.14.09-.19l28.81-24.11c17.71-14.82,24.07-38.42,16.22-60.13-7.86-21.71-27.85-35.78-50.95-35.83l-151.28-.34c-.38-.01-.75-.02-1.12-.02h-37.55c-24.66.02-46.8,14.7-56.4,37.42l-84.59,200.16c-8.02,18.98-6.01,40.57,5.38,57.75s30.49,27.43,51.1,27.43h32.2c2.17,0,4.35-.2,6.48-.59.03,0,.06,0,.09,0,4.85.89,9.9.76,14.7-.36.02,0,.04,0,.06,0Z"/>
            <path class="cls-1" d="M180.25,397.93h0c-2.95,0-5.89-.35-8.75-1.04-4.83,1.09-9.91,1.21-14.79.35-2.15.38-4.34.58-6.52.58h-32.2c-21.03,0-40.52-10.46-52.14-27.99-11.62-17.53-13.67-39.56-5.49-58.93l84.59-200.16c9.79-23.18,32.38-38.16,57.55-38.17,0,0,37.54-.01,37.55-.01.39,0,.77,0,1.16.02l151.25.34c23.62.05,44.08,14.44,52.12,36.65,8.04,22.21,1.53,46.36-16.59,61.52l-27.93,23.37c3.53,3.28,6.69,6.98,9.38,10.99,11.58,17.25,13.86,39.05,6.11,58.32-.23.56-24.94,61.82-28.11,69.77-7.6,19.04-20.59,35.19-37.56,46.69-16.97,11.5-36.78,17.59-57.29,17.59-27.28,0-66.34.04-109.99.11h-2.34ZM171.51,394.87c.08,0,.16,0,.24.03,2.77.69,5.63,1.04,8.5,1.04h2.34c43.64-.07,82.71-.11,109.99-.11,20.1,0,39.52-5.96,56.16-17.24,16.64-11.28,29.37-27.11,36.82-45.78,3.17-7.94,27.89-69.22,28.12-69.77,7.51-18.65,5.3-39.76-5.91-56.45-2.82-4.2-6.15-8.03-9.91-11.4-.22-.19-.34-.47-.33-.76,0-.29.14-.56.36-.75l28.81-24.11c17.46-14.61,23.74-37.89,15.99-59.3-7.75-21.41-27.47-35.28-50.24-35.33l-151.28-.34c-.39-.01-.76-.02-1.12-.02h-37.55c-24.36.02-46.22,14.52-55.71,36.96l-84.59,200.16c-7.92,18.75-5.94,40.08,5.31,57.04s30.12,27.1,50.48,27.1h32.2c2.12,0,4.26-.19,6.34-.58.12-.02.24-.02.36,0,4.75.87,9.7.75,14.39-.35.08-.02.15-.03.23-.03Z"/>
          </g>
          <g class="cls-4">
            <path class="cls-8" d="M159.61,443.89h0c-3.8,0-7.59-.46-11.27-1.37-6.22,1.44-12.77,1.6-19.07.46-2.77.5-5.6.76-8.41.76h-41.5c-26.75,0-51.55-13.31-66.34-35.61s-17.39-50.33-6.98-74.97L115.08,75.18c12.46-29.49,41.2-48.55,73.22-48.56,0,0,48.39-.01,48.39-.01.49,0,.97,0,1.46.02l194.97.44c30,.07,55.99,18.34,66.2,46.55,10.21,28.21,1.94,58.89-21.07,78.14l-36.91,30.88c4.85,4.38,9.16,9.35,12.81,14.79,14.73,21.94,17.63,49.68,7.77,74.2-.32.79-32.16,79.72-36.24,89.93-9.72,24.35-26.32,44.99-48.02,59.7-21.7,14.71-47.03,22.49-73.25,22.49-35.17,0-85.51.05-141.76.14h-3.02ZM148.35,442.01s.04,0,.06,0c3.65.91,7.42,1.37,11.2,1.37h3.02c56.25-.09,106.59-.14,141.76-.15,26.12,0,51.35-7.75,72.97-22.4,21.62-14.65,38.16-35.22,47.84-59.47,4.08-10.21,35.92-89.14,36.24-89.93,9.8-24.36,6.92-51.93-7.72-73.73-3.68-5.48-8.03-10.49-12.94-14.89-.05-.05-.08-.12-.08-.19,0-.07.03-.14.09-.19l37.13-31.07c22.85-19.12,31.06-49.57,20.92-77.59-10.14-28.01-35.94-46.16-65.73-46.22l-194.97-.44c-.49-.02-.97-.02-1.45-.02h-48.39c-31.82.02-60.37,18.96-72.76,48.27L6.51,333.35c-10.35,24.49-7.76,52.34,6.93,74.5,14.69,22.16,39.34,35.39,65.92,35.39h41.5c2.8,0,5.61-.26,8.36-.76.03,0,.06,0,.09,0,6.26,1.14,12.78.99,18.97-.46.02,0,.04,0,.06,0Z"/>
            <path class="cls-1" d="M159.61,444.64h0c-3.8,0-7.59-.45-11.27-1.35-6.22,1.42-12.77,1.58-19.07.45-2.77.5-5.6.75-8.41.75h-41.5c-27.01,0-52.04-13.44-66.96-35.95-14.92-22.51-17.56-50.8-7.04-75.68L114.39,74.89c12.58-29.77,41.59-49.01,73.91-49.02,0,0,48.39-.01,48.39-.01.5,0,.99,0,1.48.02l194.95.44c30.32.07,56.58,18.54,66.9,47.05,10.32,28.51,1.96,59.51-21.3,78.97l-36.25,30.33c4.64,4.27,8.77,9.1,12.29,14.34,14.87,22.15,17.8,50.15,7.84,74.89-.32.79-32.16,79.72-36.24,89.92-9.77,24.49-26.47,45.25-48.3,60.04-21.83,14.8-47.3,22.62-73.67,22.62-35.17,0-85.51.05-141.76.14h-3.02ZM148.35,441.26c.08,0,.16,0,.24.03,3.59.89,7.3,1.35,11.02,1.35h3.02c56.25-.09,106.59-.14,141.76-.15,25.97,0,51.05-7.7,72.55-22.27,21.49-14.57,37.94-35.02,47.56-59.13,4.08-10.21,35.92-89.14,36.24-89.93,9.71-24.13,6.85-51.43-7.65-73.03-3.65-5.43-7.96-10.39-12.82-14.74-.22-.19-.34-.47-.33-.76,0-.29.14-.56.36-.75l37.13-31.07c22.6-18.91,30.73-49.04,20.7-76.76-10.03-27.71-35.55-45.66-65.03-45.73l-194.97-.44c-.5-.02-.98-.02-1.45-.02h-48.39c-31.51.02-59.8,18.78-72.07,47.81L7.2,333.64c-10.25,24.26-7.68,51.84,6.87,73.79,14.55,21.95,38.96,35.05,65.3,35.05h41.5c2.75,0,5.52-.25,8.23-.75.12-.02.24-.02.36,0,6.16,1.12,12.58.97,18.67-.45.08-.02.15-.03.23-.03Z"/>
          </g>
          <g>
            <g>
              <path class="cls-2" d="M349.28,210.93c-2.57,0-3.12.39-3.52,2.52l-1.74,9.86c-.08.43-.12.79-.12,1.06,0,1.22.67,1.46,2.73,1.46h9.41c.91,0,1.38-.39,1.5-1.22l.43-2.33h-5.69c-.59,0-.87-.32-.75-.87l.75-4.34c.12-.55.47-.87,1.07-.87h12.53c.59,0,.87.32.75.87l-1.58,8.91c-.83,4.65-1.5,6.19-7.55,6.19h-16.36c-3.87,0-5.73-1.34-5.73-4.42,0-.59.08-1.22.2-1.89l2.65-14.98c.75-4.42,1.98-6.31,7.75-6.31h16.36c3.99,0,5.61,1.03,5.61,3.98,0,.63-.08,1.38-.24,2.21l-.4,2.21c-.08.55-.47.87-1.07.87h-5.93c-.59,0-.87-.32-.75-.87l.16-.83c.04-.12.04-.28.04-.35,0-.59-.36-.87-1.11-.87h-9.41Z"/>
              <path class="cls-2" d="M399.47,225.87c-.79,4.42-1.9,6.31-7.71,6.31h-17.78c-3.99,0-5.65-1.1-5.65-4.06,0-.67.08-1.38.24-2.21l.28-1.58c.08-.51.43-.83.99-.83h5.38c.55,0,.87.32.75.83l-.12.51c-.04.16-.04.28-.04.39,0,.71.39,1.02,1.3,1.02h13.04c1.38,0,1.94-.43,2.13-1.54l.36-2.13c.04-.16.04-.32.04-.47,0-.75-.47-1.06-1.62-1.06h-13.08c-.55,0-.79-.32-.71-.83l.71-3.94c.08-.51.43-.83.99-.83h12.65c1.42,0,1.94-.43,2.13-1.54l.36-1.89c.04-.16.04-.32.04-.47,0-.75-.47-1.06-1.66-1.06h-11.66c-1.07,0-1.54.43-1.74,1.42l-.08.51c-.2,1.14-1.78.83-2.81.83h-3.6c-.55,0-.79-.32-.71-.83l.28-1.58c.83-4.65,1.82-6.27,7.67-6.27h16.36c3.91,0,5.65,1.34,5.65,4.42,0,.59-.04,1.22-.16,1.89l-.2,1.26c-.59,3.63-1.46,5.52-4.9,6.11,2.29.47,3.32,1.81,3.32,4.22,0,.55-.04,1.18-.16,1.85l-.28,1.54Z"/>
              <path class="cls-2" d="M445.51,217.48c-.75,4.42-1.9,6.31-7.71,6.31h-14.27l-1.34,7.53c-.08.55-.47.87-1.07.87h-6.13c-.59,0-.87-.32-.79-.87l4.58-25.87c.12-.55.47-.87,1.07-.87h21.34c3.91,0,5.65,1.34,5.65,4.46,0,.55-.04,1.18-.16,1.85l-1.19,6.58ZM425.83,210.93l-1.19,6.51h10.24c2.29,0,2.73-.35,3.04-2.25l.36-2.01c.08-.43.12-.79.12-1.06,0-.99-.55-1.18-2.33-1.18h-10.24Z"/>
              <path class="cls-2" d="M477.28,225.87c-.79,4.42-1.9,6.31-7.71,6.31h-16.88c-3.87,0-5.73-1.34-5.73-4.42,0-.59.08-1.22.2-1.89l2.65-14.98c.75-4.42,1.98-6.31,7.75-6.31h16.88c3.91,0,5.65,1.34,5.65,4.46,0,.55-.04,1.18-.16,1.85l-2.65,14.98ZM460.84,210.93c-2.57,0-3.12.39-3.52,2.52l-1.74,9.86c-.08.43-.12.79-.12,1.06,0,1.22.67,1.46,2.73,1.46h8.06c2.61,0,3.12-.39,3.48-2.52l1.74-9.86c.08-.47.12-.83.12-1.14,0-1.14-.63-1.38-2.69-1.38h-8.06Z"/>
              <path class="cls-2" d="M505.46,232.18c-.63,0-.95-.32-.99-.87l-.83-17.43-6.96,17.43c-.2.55-.59.87-1.23.87h-9.64c-.59,0-.95-.32-.99-.87l-2.13-25.87c0-.55.28-.87.83-.87h6.4c.63,0,.95.32.95.87l1.15,20.27,8.02-20.27c.24-.55.67-.87,1.3-.87h7.86c.63,0,.95.32.95.87l.83,20.27,8.34-20.27c.24-.55.67-.87,1.3-.87h6.52c.55,0,.75.32.51.87l-11.3,25.87c-.2.55-.59.87-1.23.87h-9.68Z"/>
              <path class="cls-2" d="M557.35,204.58c.59,0,.87.32.75.87l-.83,4.61c-.08.55-.43.87-1.03.87h-18.89l-.79,4.3h15.81c.55,0,.87.32.75.87l-.75,4.34c-.08.55-.51.87-1.07.87h-15.81l-.79,4.53h18.89c.59,0,.83.32.75.87l-.83,4.61c-.08.55-.43.87-1.03.87h-25.96c-.59,0-.87-.32-.79-.87l4.58-25.87c.12-.55.47-.87,1.07-.87h25.96Z"/>
              <path class="cls-2" d="M589.44,216.37c-.79,4.42-1.94,6.7-7.79,6.7h-.12l6.13,8.24c.28.35,0,.87-.43.87h-7.23c-.75,0-1.07-.16-1.42-.67l-5.33-8.04h-6.13l-1.38,7.85c-.08.55-.47.87-1.07.87h-6.13c-.59,0-.87-.32-.79-.87l4.58-25.87c.12-.55.47-.87,1.07-.87h21.54c3.91,0,5.65,1.34,5.65,4.42,0,.59-.04,1.22-.16,1.89l-.99,5.48ZM569.36,210.93l-1.11,6.19h10.43c2.29,0,2.69-.35,3.04-2.25l.28-1.7c.08-.43.12-.79.12-1.06,0-.99-.55-1.18-2.33-1.18h-10.43Z"/>
            </g>
            <g>
              <path class="cls-7" d="M351.25,248.99c-.31,1.84-.79,2.63-3.2,2.63h-5.93l-.56,3.14c-.03.23-.2.36-.44.36h-2.55c-.25,0-.36-.13-.33-.36l1.91-10.78c.05-.23.2-.36.44-.36h8.88c1.63,0,2.35.56,2.35,1.86,0,.23-.02.49-.07.77l-.49,2.75ZM343.06,246.26l-.49,2.71h4.26c.95,0,1.13-.15,1.27-.94l.15-.84c.03-.18.05-.33.05-.44,0-.41-.23-.49-.97-.49h-4.26Z"/>
              <path class="cls-7" d="M364.47,252.49c-.33,1.84-.79,2.63-3.2,2.63h-7.02c-1.61,0-2.38-.56-2.38-1.84,0-.25.03-.51.08-.79l1.1-6.25c.31-1.84.82-2.63,3.22-2.63h7.02c1.63,0,2.35.56,2.35,1.86,0,.23-.02.49-.07.77l-1.1,6.25ZM357.63,246.26c-1.07,0-1.3.16-1.46,1.05l-.72,4.11c-.03.18-.05.33-.05.44,0,.51.28.61,1.13.61h3.35c1.09,0,1.3-.16,1.45-1.05l.72-4.11c.03-.2.05-.35.05-.48,0-.48-.26-.58-1.12-.58h-3.35Z"/>
              <path class="cls-7" d="M376.2,255.12c-.26,0-.4-.13-.41-.36l-.35-7.27-2.89,7.27c-.08.23-.25.36-.51.36h-4.01c-.25,0-.39-.13-.41-.36l-.89-10.78c0-.23.12-.36.35-.36h2.66c.26,0,.39.13.39.36l.48,8.45,3.34-8.45c.1-.23.28-.36.54-.36h3.27c.26,0,.4.13.4.36l.34,8.45,3.47-8.45c.1-.23.28-.36.54-.36h2.71c.23,0,.31.13.21.36l-4.7,10.78c-.08.23-.25.36-.51.36h-4.03Z"/>
              <path class="cls-7" d="M397.78,243.62c.25,0,.36.13.31.36l-.35,1.92c-.03.23-.18.36-.43.36h-7.86l-.33,1.79h6.58c.23,0,.36.13.31.36l-.31,1.81c-.03.23-.21.36-.44.36h-6.58l-.33,1.89h7.86c.25,0,.35.13.31.36l-.35,1.92c-.03.23-.18.36-.43.36h-10.8c-.25,0-.36-.13-.33-.36l1.91-10.78c.05-.23.2-.36.44-.36h10.8Z"/>
              <path class="cls-7" d="M411.14,248.53c-.33,1.84-.81,2.79-3.24,2.79h-.05l2.55,3.44c.12.15,0,.36-.18.36h-3.01c-.31,0-.44-.07-.59-.28l-2.22-3.35h-2.55l-.58,3.27c-.03.23-.2.36-.44.36h-2.55c-.25,0-.36-.13-.33-.36l1.91-10.78c.05-.23.2-.36.44-.36h8.96c1.63,0,2.35.56,2.35,1.84,0,.25-.02.51-.07.79l-.41,2.29ZM402.79,246.26l-.46,2.58h4.34c.95,0,1.12-.15,1.27-.94l.12-.71c.03-.18.05-.33.05-.44,0-.41-.23-.49-.97-.49h-4.34Z"/>
              <path class="cls-7" d="M427.04,255.12c-.26,0-.4-.13-.41-.36l-.35-7.27-2.89,7.27c-.08.23-.25.36-.51.36h-4.01c-.25,0-.39-.13-.41-.36l-.89-10.78c0-.23.12-.36.35-.36h2.66c.26,0,.39.13.39.36l.48,8.45,3.34-8.45c.1-.23.28-.36.54-.36h3.27c.26,0,.4.13.4.36l.34,8.45,3.47-8.45c.1-.23.28-.36.54-.36h2.71c.23,0,.31.13.21.36l-4.7,10.78c-.08.23-.25.36-.51.36h-4.03Z"/>
              <path class="cls-7" d="M438.8,254.76c-.03.23-.2.36-.44.36h-2.55c-.25,0-.36-.13-.33-.36l1.91-10.78c.05-.23.2-.36.44-.36h2.55c.25,0,.38.13.33.36l-1.91,10.78Z"/>
              <path class="cls-7" d="M445.89,246.26h-3.93c-.25,0-.36-.13-.33-.36l.35-1.92c.05-.23.2-.36.44-.36h11.18c.25,0,.36.13.31.36l-.35,1.92c-.03.23-.18.36-.43.36h-3.93l-1.51,8.5c-.03.23-.2.36-.43.36h-2.56c-.25,0-.36-.13-.33-.36l1.51-8.5Z"/>
              <path class="cls-7" d="M465.53,254.76c-.03.23-.18.36-.43.36h-2.56c-.25,0-.36-.13-.33-.36l.74-4.13h-5.61l-.74,4.13c-.03.23-.2.36-.44.36h-2.55c-.25,0-.36-.13-.33-.36l1.91-10.78c.05-.23.2-.36.44-.36h2.55c.25,0,.38.13.33.36l-.71,4.01h5.61l.71-4.01c.05-.23.2-.36.44-.36h2.56c.25,0,.36.13.31.36l-1.91,10.78Z"/>
              <path class="cls-7" d="M481.48,253.17h-5.54l-.9,1.61c-.12.23-.3.35-.58.35h-2.79c-.21,0-.3-.16-.16-.38l6.41-10.78c.13-.23.31-.35.61-.35h3.75c.28,0,.41.12.46.35l2.63,10.78c.03.21-.08.38-.28.38h-2.78c-.3,0-.43-.12-.48-.35l-.35-1.61ZM477.41,250.59h3.52l-.95-4.54-2.56,4.54Z"/>
              <path class="cls-7" d="M504.32,248.99c-.31,1.84-.79,2.63-3.2,2.63h-5.93l-.56,3.14c-.03.23-.2.36-.44.36h-2.55c-.25,0-.36-.13-.33-.36l1.91-10.78c.05-.23.2-.36.44-.36h8.88c1.63,0,2.35.56,2.35,1.86,0,.23-.02.49-.07.77l-.49,2.75ZM496.14,246.26l-.49,2.71h4.26c.95,0,1.13-.15,1.27-.94l.15-.84c.03-.18.05-.33.05-.44,0-.41-.23-.49-.97-.49h-4.26Z"/>
              <path class="cls-7" d="M512.61,252.48c1.08,0,1.3-.16,1.45-1.05l1.32-7.45c.05-.23.2-.36.44-.36h2.56c.23,0,.36.13.31.36l-1.5,8.51c-.33,1.84-.79,2.63-3.2,2.63h-6.58c-1.63,0-2.38-.56-2.38-1.84,0-.23.03-.49.08-.79l1.5-8.51c.05-.23.2-.36.44-.36h2.56c.25,0,.36.13.31.36l-1.32,7.45c-.03.18-.05.33-.05.44,0,.51.28.61,1.13.61h2.91Z"/>
              <path class="cls-7" d="M531.98,248.53c-.33,1.84-.81,2.79-3.24,2.79h-.05l2.55,3.44c.12.15,0,.36-.18.36h-3.01c-.31,0-.44-.07-.59-.28l-2.22-3.35h-2.55l-.58,3.27c-.03.23-.2.36-.44.36h-2.55c-.25,0-.36-.13-.33-.36l1.91-10.78c.05-.23.2-.36.44-.36h8.96c1.63,0,2.35.56,2.35,1.84,0,.25-.02.51-.07.79l-.41,2.29ZM523.63,246.26l-.46,2.58h4.34c.95,0,1.12-.15,1.27-.94l.12-.71c.03-.18.05-.33.05-.44,0-.41-.23-.49-.97-.49h-4.34Z"/>
              <path class="cls-7" d="M545.69,248.99c-.31,1.84-.79,2.63-3.2,2.63h-5.93l-.56,3.14c-.03.23-.2.36-.44.36h-2.55c-.25,0-.36-.13-.33-.36l1.91-10.78c.05-.23.2-.36.44-.36h8.88c1.63,0,2.35.56,2.35,1.86,0,.23-.02.49-.07.77l-.49,2.75ZM537.51,246.26l-.49,2.71h4.26c.95,0,1.13-.15,1.27-.94l.15-.84c.03-.18.05-.33.05-.44,0-.41-.23-.49-.97-.49h-4.26Z"/>
              <path class="cls-7" d="M558.91,252.49c-.33,1.84-.79,2.63-3.2,2.63h-7.02c-1.61,0-2.38-.56-2.38-1.84,0-.25.03-.51.08-.79l1.1-6.25c.31-1.84.82-2.63,3.22-2.63h7.02c1.63,0,2.35.56,2.35,1.86,0,.23-.02.49-.07.77l-1.1,6.25ZM552.08,246.26c-1.07,0-1.3.16-1.46,1.05l-.72,4.11c-.03.18-.05.33-.05.44,0,.51.28.61,1.13.61h3.35c1.08,0,1.3-.16,1.45-1.05l.72-4.11c.03-.2.05-.35.05-.48,0-.48-.26-.58-1.12-.58h-3.35Z"/>
              <path class="cls-7" d="M568.59,252.48c.54,0,.74-.16.8-.58l.13-.74c.02-.07.02-.12.02-.16,0-.3-.16-.41-.62-.41h-5.33c-1.64,0-2.37-.56-2.37-1.84,0-.23.03-.49.08-.79l.31-1.71c.31-1.84.77-2.63,3.21-2.63h6.44c1.64,0,2.32.43,2.32,1.66,0,.26-.03.58-.1.92l-.12.67c-.03.23-.2.36-.44.36h-2.47c-.25,0-.35-.13-.31-.36l.02-.1c.02-.08.02-.11.02-.16,0-.23-.13-.34-.46-.34h-4.08c-.54,0-.74.16-.82.58l-.12.64c-.02.07-.02.12-.02.18,0,.28.16.39.62.39h5.33c1.63,0,2.37.56,2.37,1.82,0,.25-.03.51-.08.81l-.31,1.81c-.33,1.84-.77,2.63-3.21,2.63h-6.82c-1.66,0-2.33-.43-2.33-1.64,0-.28.03-.59.1-.94l.12-.67c.05-.23.2-.36.44-.36h2.47c.23,0,.36.13.31.36l-.02.08c-.02.07-.02.12-.02.16,0,.25.13.36.46.36h4.47Z"/>
              <path class="cls-7" d="M586.98,243.62c.25,0,.36.13.31.36l-.35,1.92c-.03.23-.18.36-.43.36h-7.86l-.33,1.79h6.58c.23,0,.36.13.31.36l-.31,1.81c-.03.23-.21.36-.44.36h-6.58l-.33,1.89h7.86c.25,0,.35.13.31.36l-.35,1.92c-.03.23-.18.36-.43.36h-10.8c-.25,0-.36-.13-.33-.36l1.91-10.78c.05-.23.2-.36.44-.36h10.8Z"/>
            </g>
          </g>
        </g>
      </g>
    </g>
  </g>
</svg>