<?xml version="1.0" encoding="UTF-8"?>
<svg xmlns="http://www.w3.org/2000/svg" viewBox="0 0 1008 157.79">
  <defs>
    <style>
      .cls-1 {
        fill: #091a59;
      }

      .cls-2, .cls-3 {
        opacity: .14;
      }

      .cls-4 {
        fill: #fff;
      }

      .cls-3 {
        mix-blend-mode: multiply;
      }

      .cls-5 {
        isolation: isolate;
      }

      .cls-6 {
        fill: #61ff4a;
      }

      .cls-7 {
        opacity: .2;
      }

      .cls-8 {
        fill: #62ef80;
      }

      .cls-9 {
        fill: #e8eae8;
      }
    </style>
  </defs>
  <g class="cls-5">
    <g id="Resume_Design" data-name="Resume Design">
      <g id="Resume_1st_page" data-name="Resume 1st page">
        <g id="Name_image_part" data-name="Name &amp;amp; image part">
          <g>
            <g>
              <path class="cls-4" d="M349.28,62.56c-2.57,0-3.12.39-3.52,2.52l-1.74,9.86c-.08.43-.12.79-.12,1.06,0,1.22.67,1.46,2.73,1.46h9.41c.91,0,1.38-.39,1.5-1.22l.43-2.33h-5.69c-.59,0-.87-.32-.75-.87l.75-4.34c.12-.55.47-.87,1.07-.87h12.53c.59,0,.87.32.75.87l-1.58,8.91c-.83,4.65-1.5,6.19-7.55,6.19h-16.36c-3.87,0-5.73-1.34-5.73-4.42,0-.59.08-1.22.2-1.89l2.65-14.98c.75-4.42,1.98-6.31,7.75-6.31h16.36c3.99,0,5.61,1.03,5.61,3.98,0,.63-.08,1.38-.24,2.21l-.4,2.21c-.08.55-.47.87-1.07.87h-5.93c-.59,0-.87-.32-.75-.87l.16-.83c.04-.12.04-.28.04-.35,0-.59-.36-.87-1.11-.87h-9.41Z"/>
              <path class="cls-4" d="M399.47,77.5c-.79,4.42-1.9,6.31-7.71,6.31h-17.78c-3.99,0-5.65-1.1-5.65-4.06,0-.67.08-1.38.24-2.21l.28-1.58c.08-.51.43-.83.99-.83h5.38c.55,0,.87.32.75.83l-.12.51c-.04.16-.04.28-.04.39,0,.71.39,1.02,1.3,1.02h13.04c1.38,0,1.94-.43,2.13-1.54l.36-2.13c.04-.16.04-.32.04-.47,0-.75-.47-1.06-1.62-1.06h-13.08c-.55,0-.79-.32-.71-.83l.71-3.94c.08-.51.43-.83.99-.83h12.65c1.42,0,1.94-.43,2.13-1.54l.36-1.89c.04-.16.04-.32.04-.47,0-.75-.47-1.06-1.66-1.06h-11.66c-1.07,0-1.54.43-1.74,1.42l-.08.51c-.2,1.14-1.78.83-2.81.83h-3.6c-.55,0-.79-.32-.71-.83l.28-1.58c.83-4.65,1.82-6.27,7.67-6.27h16.36c3.91,0,5.65,1.34,5.65,4.42,0,.59-.04,1.22-.16,1.89l-.2,1.26c-.59,3.63-1.46,5.52-4.9,6.11,2.29.47,3.32,1.81,3.32,4.22,0,.55-.04,1.18-.16,1.85l-.28,1.54Z"/>
              <path class="cls-4" d="M445.51,69.1c-.75,4.42-1.9,6.31-7.71,6.31h-14.27l-1.34,7.53c-.08.55-.47.87-1.07.87h-6.13c-.59,0-.87-.32-.79-.87l4.58-25.87c.12-.55.47-.87,1.07-.87h21.34c3.91,0,5.65,1.34,5.65,4.46,0,.55-.04,1.18-.16,1.85l-1.19,6.58ZM425.83,62.56l-1.19,6.51h10.24c2.29,0,2.73-.35,3.04-2.25l.36-2.01c.08-.43.12-.79.12-1.06,0-.99-.55-1.18-2.33-1.18h-10.24Z"/>
              <path class="cls-4" d="M477.28,77.5c-.79,4.42-1.9,6.31-7.71,6.31h-16.88c-3.87,0-5.73-1.34-5.73-4.42,0-.59.08-1.22.2-1.89l2.65-14.98c.75-4.42,1.98-6.31,7.75-6.31h16.88c3.91,0,5.65,1.34,5.65,4.46,0,.55-.04,1.18-.16,1.85l-2.65,14.98ZM460.84,62.56c-2.57,0-3.12.39-3.52,2.52l-1.74,9.86c-.08.43-.12.79-.12,1.06,0,1.22.67,1.46,2.73,1.46h8.06c2.61,0,3.12-.39,3.48-2.52l1.74-9.86c.08-.47.12-.83.12-1.14,0-1.14-.63-1.38-2.69-1.38h-8.06Z"/>
              <path class="cls-4" d="M505.46,83.81c-.63,0-.95-.32-.99-.87l-.83-17.43-6.96,17.43c-.2.55-.59.87-1.23.87h-9.64c-.59,0-.95-.32-.99-.87l-2.13-25.87c0-.55.28-.87.83-.87h6.4c.63,0,.95.32.95.87l1.15,20.27,8.02-20.27c.24-.55.67-.87,1.3-.87h7.86c.63,0,.95.32.95.87l.83,20.27,8.34-20.27c.24-.55.67-.87,1.3-.87h6.52c.55,0,.75.32.51.87l-11.3,25.87c-.2.55-.59.87-1.23.87h-9.68Z"/>
              <path class="cls-4" d="M557.35,56.21c.59,0,.87.32.75.87l-.83,4.61c-.08.55-.43.87-1.03.87h-18.89l-.79,4.3h15.81c.55,0,.87.32.75.87l-.75,4.34c-.08.55-.51.87-1.07.87h-15.81l-.79,4.53h18.89c.59,0,.83.32.75.87l-.83,4.61c-.08.55-.43.87-1.03.87h-25.96c-.59,0-.87-.32-.79-.87l4.58-25.87c.12-.55.47-.87,1.07-.87h25.96Z"/>
              <path class="cls-4" d="M589.44,68c-.79,4.42-1.94,6.7-7.79,6.7h-.12l6.13,8.24c.28.35,0,.87-.43.87h-7.23c-.75,0-1.07-.16-1.42-.67l-5.33-8.04h-6.13l-1.38,7.85c-.08.55-.47.87-1.07.87h-6.13c-.59,0-.87-.32-.79-.87l4.58-25.87c.12-.55.47-.87,1.07-.87h21.54c3.91,0,5.65,1.34,5.65,4.42,0,.59-.04,1.22-.16,1.89l-.99,5.48ZM569.36,62.56l-1.11,6.19h10.43c2.29,0,2.69-.35,3.04-2.25l.28-1.7c.08-.43.12-.79.12-1.06,0-.99-.55-1.18-2.33-1.18h-10.43Z"/>
            </g>
            <g>
              <path class="cls-8" d="M374.67,102.62c-.21,1.26-.54,1.81-2.2,1.81h-4.08l-.38,2.16c-.02.16-.13.25-.3.25h-1.75c-.17,0-.25-.09-.23-.25l1.31-7.41c.03-.16.14-.25.3-.25h6.1c1.12,0,1.61.38,1.61,1.28,0,.16-.01.34-.04.53l-.34,1.89ZM369.05,100.74l-.34,1.86h2.92c.66,0,.78-.1.87-.64l.1-.58c.02-.12.03-.23.03-.31,0-.28-.16-.34-.67-.34h-2.92Z"/>
              <path class="cls-8" d="M383.75,105.02c-.23,1.26-.54,1.81-2.2,1.81h-4.82c-1.11,0-1.64-.38-1.64-1.26,0-.17.02-.35.06-.54l.76-4.29c.21-1.26.56-1.81,2.21-1.81h4.82c1.12,0,1.61.38,1.61,1.28,0,.16-.01.34-.04.53l-.76,4.29ZM379.06,100.74c-.73,0-.89.11-1,.72l-.5,2.82c-.02.12-.03.23-.03.3,0,.35.19.42.78.42h2.3c.75,0,.89-.11.99-.72l.5-2.82c.02-.14.03-.24.03-.33,0-.33-.18-.4-.77-.4h-2.3Z"/>
              <path class="cls-8" d="M391.81,106.83c-.18,0-.27-.09-.28-.25l-.24-4.99-1.99,4.99c-.06.16-.17.25-.35.25h-2.75c-.17,0-.27-.09-.28-.25l-.61-7.41c0-.16.08-.25.24-.25h1.83c.18,0,.27.09.27.25l.33,5.8,2.29-5.8c.07-.16.19-.25.37-.25h2.25c.18,0,.27.09.27.25l.24,5.8,2.38-5.8c.07-.16.19-.25.37-.25h1.86c.16,0,.21.09.15.25l-3.23,7.41c-.06.16-.17.25-.35.25h-2.77Z"/>
              <path class="cls-8" d="M406.64,98.92c.17,0,.25.09.21.25l-.24,1.32c-.02.16-.12.25-.29.25h-5.4l-.23,1.23h4.52c.16,0,.25.09.21.25l-.21,1.24c-.02.16-.15.25-.3.25h-4.52l-.23,1.3h5.4c.17,0,.24.09.21.25l-.24,1.32c-.02.16-.12.25-.29.25h-7.42c-.17,0-.25-.09-.23-.25l1.31-7.41c.03-.16.14-.25.3-.25h7.42Z"/>
              <path class="cls-8" d="M415.81,102.3c-.23,1.26-.55,1.92-2.22,1.92h-.03l1.75,2.36c.08.1,0,.25-.12.25h-2.07c-.21,0-.3-.04-.41-.19l-1.52-2.3h-1.75l-.4,2.25c-.02.16-.13.25-.3.25h-1.75c-.17,0-.25-.09-.23-.25l1.31-7.41c.03-.16.14-.25.3-.25h6.15c1.12,0,1.61.38,1.61,1.26,0,.17-.01.35-.04.54l-.28,1.57ZM410.07,100.74l-.32,1.77h2.98c.66,0,.77-.1.87-.64l.08-.49c.02-.12.03-.23.03-.31,0-.28-.16-.34-.67-.34h-2.98Z"/>
              <path class="cls-8" d="M426.73,106.83c-.18,0-.27-.09-.28-.25l-.24-4.99-1.99,4.99c-.06.16-.17.25-.35.25h-2.75c-.17,0-.27-.09-.28-.25l-.61-7.41c0-.16.08-.25.24-.25h1.83c.18,0,.27.09.27.25l.33,5.8,2.29-5.8c.07-.16.19-.25.37-.25h2.25c.18,0,.27.09.27.25l.24,5.8,2.38-5.8c.07-.16.19-.25.37-.25h1.86c.16,0,.21.09.15.25l-3.23,7.41c-.06.16-.17.25-.35.25h-2.77Z"/>
              <path class="cls-8" d="M434.81,106.58c-.02.16-.13.25-.3.25h-1.75c-.17,0-.25-.09-.23-.25l1.31-7.41c.03-.16.14-.25.3-.25h1.75c.17,0,.26.09.23.25l-1.31,7.41Z"/>
              <path class="cls-8" d="M439.68,100.74h-2.7c-.17,0-.25-.09-.23-.25l.24-1.32c.03-.16.14-.25.3-.25h7.68c.17,0,.25.09.21.25l-.24,1.32c-.02.16-.12.25-.29.25h-2.7l-1.04,5.84c-.02.16-.14.25-.29.25h-1.76c-.17,0-.25-.09-.23-.25l1.04-5.84Z"/>
              <path class="cls-8" d="M453.18,106.58c-.02.16-.12.25-.29.25h-1.76c-.17,0-.25-.09-.23-.25l.51-2.83h-3.85l-.51,2.83c-.02.16-.13.25-.3.25h-1.75c-.17,0-.25-.09-.23-.25l1.31-7.41c.03-.16.14-.25.3-.25h1.75c.17,0,.26.09.23.25l-.49,2.76h3.85l.49-2.76c.03-.16.14-.25.31-.25h1.76c.17,0,.25.09.21.25l-1.31,7.41Z"/>
              <path class="cls-8" d="M464.13,105.49h-3.81l-.62,1.11c-.08.16-.2.24-.4.24h-1.92c-.15,0-.2-.11-.11-.26l4.4-7.41c.09-.16.21-.24.42-.24h2.57c.19,0,.28.08.32.24l1.81,7.41c.02.15-.06.26-.19.26h-1.91c-.2,0-.29-.08-.33-.24l-.24-1.11ZM461.33,103.71h2.42l-.66-3.12-1.76,3.12Z"/>
              <path class="cls-8" d="M479.82,102.62c-.21,1.26-.54,1.81-2.2,1.81h-4.08l-.38,2.16c-.02.16-.13.25-.3.25h-1.75c-.17,0-.25-.09-.23-.25l1.31-7.41c.03-.16.14-.25.3-.25h6.1c1.12,0,1.61.38,1.61,1.28,0,.16-.01.34-.04.53l-.34,1.89ZM474.2,100.74l-.34,1.86h2.92c.66,0,.78-.1.87-.64l.1-.58c.02-.12.03-.23.03-.31,0-.28-.16-.34-.67-.34h-2.92Z"/>
              <path class="cls-8" d="M485.52,105.01c.75,0,.89-.11.99-.72l.9-5.12c.03-.16.14-.25.3-.25h1.76c.16,0,.25.09.21.25l-1.03,5.85c-.23,1.26-.54,1.81-2.2,1.81h-4.52c-1.12,0-1.64-.38-1.64-1.26,0-.16.02-.34.06-.54l1.03-5.85c.03-.16.14-.25.3-.25h1.76c.17,0,.25.09.21.25l-.9,5.12c-.02.12-.03.23-.03.3,0,.35.19.42.78.42h2Z"/>
              <path class="cls-8" d="M498.82,102.3c-.23,1.26-.55,1.92-2.22,1.92h-.03l1.75,2.36c.08.1,0,.25-.12.25h-2.07c-.21,0-.31-.04-.41-.19l-1.52-2.3h-1.75l-.4,2.25c-.02.16-.13.25-.3.25h-1.75c-.17,0-.25-.09-.23-.25l1.31-7.41c.03-.16.14-.25.3-.25h6.15c1.12,0,1.61.38,1.61,1.26,0,.17-.01.35-.04.54l-.28,1.57ZM493.09,100.74l-.32,1.77h2.98c.66,0,.77-.1.87-.64l.08-.49c.02-.12.03-.23.03-.31,0-.28-.16-.34-.67-.34h-2.98Z"/>
              <path class="cls-8" d="M508.24,102.62c-.21,1.26-.54,1.81-2.2,1.81h-4.08l-.38,2.16c-.02.16-.13.25-.3.25h-1.75c-.17,0-.25-.09-.23-.25l1.31-7.41c.03-.16.14-.25.3-.25h6.1c1.12,0,1.61.38,1.61,1.28,0,.16-.01.34-.04.53l-.34,1.89ZM502.62,100.74l-.34,1.86h2.92c.66,0,.78-.1.87-.64l.1-.58c.02-.12.03-.23.03-.31,0-.28-.16-.34-.67-.34h-2.92Z"/>
              <path class="cls-8" d="M517.32,105.02c-.23,1.26-.54,1.81-2.2,1.81h-4.82c-1.11,0-1.64-.38-1.64-1.26,0-.17.02-.35.06-.54l.76-4.29c.21-1.26.57-1.81,2.21-1.81h4.82c1.12,0,1.61.38,1.61,1.28,0,.16-.01.34-.04.53l-.76,4.29ZM512.63,100.74c-.73,0-.89.11-1,.72l-.5,2.82c-.02.12-.03.23-.03.3,0,.35.19.42.78.42h2.3c.75,0,.89-.11.99-.72l.5-2.82c.02-.14.03-.24.03-.33,0-.33-.18-.4-.77-.4h-2.3Z"/>
              <path class="cls-8" d="M523.97,105.01c.37,0,.51-.11.55-.4l.09-.51s.01-.08.01-.11c0-.2-.11-.28-.43-.28h-3.66c-1.13,0-1.63-.38-1.63-1.26,0-.16.02-.34.06-.54l.21-1.17c.21-1.26.53-1.81,2.2-1.81h4.43c1.13,0,1.59.29,1.59,1.14,0,.18-.02.4-.07.63l-.08.46c-.02.16-.13.25-.3.25h-1.69c-.17,0-.24-.09-.21-.25v-.07c.02-.06.02-.08.02-.11,0-.16-.09-.24-.32-.24h-2.8c-.37,0-.51.11-.56.4l-.08.44s-.01.08-.01.12c0,.19.11.27.43.27h3.66c1.12,0,1.63.38,1.63,1.25,0,.17-.02.35-.06.55l-.21,1.24c-.23,1.26-.53,1.81-2.2,1.81h-4.69c-1.14,0-1.6-.29-1.6-1.13,0-.19.02-.41.07-.64l.08-.46c.03-.16.14-.25.3-.25h1.69c.16,0,.25.09.21.25v.06s-.02.08-.02.11c0,.17.09.25.32.25h3.07Z"/>
              <path class="cls-8" d="M536.61,98.92c.17,0,.25.09.21.25l-.24,1.32c-.02.16-.12.25-.29.25h-5.4l-.23,1.23h4.52c.16,0,.25.09.21.25l-.21,1.24c-.02.16-.15.25-.3.25h-4.52l-.23,1.3h5.4c.17,0,.24.09.21.25l-.24,1.32c-.02.16-.12.25-.29.25h-7.42c-.17,0-.25-.09-.23-.25l1.31-7.41c.03-.16.14-.25.3-.25h7.42Z"/>
            </g>
          </g>
          <g>
            <g>
              <path class="cls-9" d="M235.02,133.99c-.83,0-1.65-.07-2.45-.19-1.34.2-2.71.21-4.05.06-.59.07-1.2.1-1.8.1h-8.9c-7.56,0-14.57-3.76-18.75-10.07s-4.92-14.23-1.97-21.19l23.38-55.33c3.52-8.34,11.65-13.73,20.71-13.73h10.37c.08,0,.25,0,.38,0l41.76.09h0c8.74.02,16.32,5.35,19.29,13.57,2.98,8.22.56,17.16-6.14,22.77l-3.78,3.16c3.84,6.11,4.54,13.69,1.83,20.41,0,.01-6.88,17.04-7.76,19.27-5.1,12.78-17.29,21.04-31.05,21.05-11.66,0-27.1.03-30.39.03h-.66Z"/>
              <path class="cls-1" d="M235.02,130.49c-.83,0-1.64-.08-2.43-.25-1.35.26-2.73.28-4.08.08-.59.09-1.19.14-1.8.14h-8.9c-6.39,0-12.31-3.18-15.84-8.5s-4.15-12.01-1.67-17.9l23.38-55.33c2.98-7.04,9.84-11.59,17.48-11.59h10.37c.06,0,.22,0,.33,0l41.8.09h0c7.26.02,13.54,4.44,16.01,11.26s.47,14.24-5.1,18.9l-6.31,5.28c.54.61,1.04,1.27,1.51,1.96,3.52,5.24,4.21,11.86,1.85,17.71,0,0-6.88,17.05-7.77,19.28-4.57,11.45-15.48,18.84-27.8,18.84-11.66,0-27.11.03-30.4.03h-.65ZM293.63,61.23h0,0Z"/>
              <path class="cls-6" d="M293.65,49.23l-42.06-.09h-.04s-10.38,0-10.38,0c-2.81,0-5.34,1.68-6.43,4.26l-23.38,55.33c-1.95,4.62,1.44,9.73,6.45,9.73h8.9l9.19-13.05h-6.52c-1.17,0-1.96-1.19-1.5-2.27l16.73-39.41-7.9-2.18h42.74l-7.76,2.2-26.59,23.44c-.44.39-.16,1.12.43,1.12l15.9.07-11.35,3.1-19.75,26.98,36.32-30.09,8.31.02c1.6,0,2.64,1.7,1.9,3.12-1.29,2.51-3.14,6.09-4.66,8.98-1.59,3.02-4.73,4.92-8.15,4.92h-12.55l-16.47,13.08c.18,0,17.99-.03,31.05-.03,7.34,0,13.94-4.47,16.66-11.29.89-2.24,7.78-19.31,7.78-19.31,1.85-4.6-1.52-9.62-6.48-9.65l-20.88-.14.28-.02,12.67-2.47,20.78-17.39c3.63-3.03,1.49-8.94-3.24-8.95Z"/>
            </g>
            <path class="cls-1" d="M248.37,66.05l9.37,1.48-4.68,5.78-7.42,5.62s.78-8.04.78-8.27,1.95-4.61,1.95-4.61Z"/>
          </g>
          <g class="cls-7">
            <path class="cls-8" d="M826.51,259.41c-.13,0-.27-.05-.37-.16-.19-.2-.17-.52.03-.71l36.57-33.58-2.3-24.04c-.02-.16.05-.33.18-.43l8.69-7.21-2.05-28-4.34-13.33c-.08-.26.06-.54.32-.63.27-.09.54.06.63.32l4.36,13.39s.02.08.02.12l2.08,28.32c.01.16-.06.32-.18.42l-8.68,7.2,2.3,24.02c.01.16-.04.31-.16.42l-36.75,33.75c-.1.09-.22.13-.34.13Z"/>
            <path class="cls-8" d="M843.31,196.7c-.13,0-.26-.05-.35-.15-.2-.2-.2-.51,0-.71l9.59-9.59v-32.49c0-.13.05-.26.15-.35l8.91-8.91-5.04-18.02c-.07-.27.08-.54.35-.62.27-.08.54.08.62.35l5.12,18.3c.05.17,0,.36-.13.49l-8.97,8.97v32.49c0,.13-.05.26-.15.35l-9.74,9.74c-.1.1-.23.15-.35.15Z"/>
            <path class="cls-8" d="M854.14,146.47c-.28,0-.5-.22-.5-.5v-9.65l-8.81-26.81c-.09-.26.06-.54.32-.63s.55.06.63.32l8.84,26.89c.02.05.03.1.03.16v9.73c0,.28-.22.5-.5.5Z"/>
            <path class="cls-8" d="M830.93,185.67c-.07,0-.14-.01-.21-.04-.17-.08-.29-.24-.29-.43l-1.08-21.41c0-.14.05-.28.15-.38l7.86-7.86.54-26.39c0-.27.23-.49.5-.49h0c.28,0,.5.23.49.51l-.54,26.59c0,.13-.05.25-.15.34l-7.85,7.85,1.02,20.21,15.06-12.05v-24.94l-3.62-23.77c-.04-.27.15-.53.42-.57.27-.04.53.15.57.42l3.63,23.85v25.26c0,.15-.06.3-.18.39l-16.01,12.81c-.09.07-.2.11-.31.11ZM846.94,172.37h0,0Z"/>
            <path class="cls-8" d="M809.96,106.42c-.26,0-.48-.2-.5-.46l-1-12.72c-.01-.18.07-.36.22-.46l3.76-2.46-5.16-8.9c-.09-.16-.09-.36,0-.52l6.39-10.18-10.41-7.44c-.22-.16-.28-.47-.12-.7.16-.23.47-.28.7-.12l10.79,7.71c.21.15.27.45.13.67l-6.48,10.33,5.25,9.05c.13.23.06.52-.16.67l-3.91,2.56.98,12.43c.02.28-.18.52-.46.54-.01,0-.03,0-.04,0Z"/>
            <path class="cls-8" d="M825.32,111.92c-.15,0-.3-.07-.4-.2l-1.87-2.45-4.22,1.26c-1.26.38-2.64.33-3.87-.13l-4.24-1.57-1.85,2.43c-.17.22-.48.26-.7.09-.22-.17-.26-.48-.09-.7l2.08-2.72c.14-.17.37-.24.57-.17l4.58,1.7c1.03.38,2.18.42,3.24.1l4.55-1.36c.2-.06.42.01.54.18l2.08,2.72c.17.22.12.53-.09.7-.09.07-.2.1-.3.1Z"/>
            <path class="cls-8" d="M806.45,90.69c-.15,0-.3-.07-.4-.2l-6-8.06c-.17-.22-.12-.53.1-.7.22-.16.53-.12.7.1l6,8.06c.17.22.12.53-.1.7-.09.07-.19.1-.3.1Z"/>
            <path class="cls-8" d="M824.45,107.01s-.03,0-.04,0c-.28-.02-.48-.26-.46-.54l.98-12.43-3.91-2.56c-.22-.15-.29-.44-.16-.67l5.25-9.05-6.48-10.33c-.14-.22-.08-.52.13-.67l10.79-7.71c.23-.16.54-.11.7.12.16.22.11.54-.12.7l-10.41,7.44,6.39,10.18c.1.16.1.36,0,.52l-5.16,8.9,3.76,2.46c.15.1.24.28.22.46l-1,12.72c-.02.26-.24.46-.5.46Z"/>
            <path class="cls-8" d="M827.96,91.28c-.1,0-.21-.03-.3-.1-.22-.17-.27-.48-.1-.7l6-8.06c.17-.22.48-.27.7-.1.22.17.27.48.1.7l-6,8.06c-.1.13-.25.2-.4.2Z"/>
            <path class="cls-8" d="M804.68,98.78s-.08,0-.12-.02l-4.44-1.12c-1.7-.43-2.81-2.06-2.6-3.8l.47-3.8c.03-.27.29-.48.56-.43.04,0,.07.01.11.02l-3.44-2.42c-.23-.16-.28-.47-.12-.7.16-.23.47-.28.7-.12l6.92,4.87c.09.06.15.15.19.25l2.25,6.61c.06.17.02.37-.11.5-.1.1-.23.16-.37.16ZM798.88,89.78c.08.1.13.24.11.38l-.47,3.8c-.15,1.24.64,2.4,1.85,2.71l3.55.9-1.9-5.58-3.13-2.2Z"/>
            <path class="cls-8" d="M830.41,98.13c-.14,0-.27-.06-.37-.16-.12-.13-.17-.33-.11-.5l2.25-6.61c.03-.1.1-.19.19-.25l6.92-4.87c.23-.16.54-.11.7.12.16.23.1.54-.12.7l-3.44,2.42s.07-.02.11-.02c.26-.04.52.16.56.43l.43,3.45c.24,1.94-1.01,3.76-2.9,4.24l-4.1,1.04s-.08.02-.12.02ZM833.08,91.34l-1.91,5.58,3.21-.81c1.4-.35,2.33-1.71,2.15-3.14l-.43-3.45c-.02-.14.03-.28.11-.38l-3.13,2.2Z"/>
            <path class="cls-8" d="M819.04,189.95c-.13,0-.25-.05-.35-.14l-14.94-14.76c-.11-.11-.16-.25-.15-.4l1.32-13.23-5.24-7.4c-.07-.09-.1-.21-.09-.32l1.67-25.81-4.54-5.55c-.07-.09-.11-.2-.11-.32v-10.28l-5.81-8.62c-.08-.12-.11-.28-.06-.42l2.6-8.7-1.85-2.76c-.15-.23-.09-.54.14-.69.23-.15.54-.09.69.14l1.99,2.96c.08.12.11.28.06.42l-2.6,8.7,5.77,8.56c.06.08.08.18.08.28v10.25l4.55,5.56c.08.1.12.22.11.35l-1.67,25.83,5.24,7.41c.07.1.1.22.09.34l-1.31,13.18,14.77,14.59c.2.19.2.51,0,.71-.1.1-.23.15-.36.15Z"/>
            <path class="cls-8" d="M820.55,166.35c-.14,0-.27-.06-.37-.16l-13.35-14.29c-.08-.09-.13-.2-.13-.32l-.88-23.9c0-.28.21-.51.48-.52,0,0,.01,0,.02,0,.27,0,.49.21.5.48l.88,23.71,12.35,13.23v-18.61c0-.15.07-.3.19-.39l6.16-4.92.91-8.1c.01-.09.05-.18.11-.25l7.53-9.5v-10.6c0-.12.05-.24.13-.33l7.66-8.53-2.84-7.23c-.06-.14-.04-.3.04-.44l2.95-4.99c.14-.24.45-.32.68-.18.24.14.32.45.18.69l-2.82,4.78,2.86,7.29c.07.18.03.38-.09.52l-7.74,8.62v10.58c0,.11-.04.22-.11.31l-7.55,9.52-.92,8.17c-.01.13-.08.25-.18.33l-6.13,4.9v19.64c0,.21-.13.39-.32.47-.06.02-.12.03-.18.03Z"/>
            <path class="cls-8" d="M807.29,123.37c-.93,0-1.8-.35-2.47-.99-.72-.69-1.12-1.61-1.12-2.61v-15.69l-10.94-6.85c-.23-.15-.3-.46-.16-.69.15-.23.46-.3.69-.16l11.17,6.99c.15.09.23.25.23.42v10.5l.78-.31c.67-.27,1.41-.26,2.08.03.67.29,1.17.83,1.43,1.5l.28.73c.26.69.85,1.23,1.56,1.44l1.75.51c1.16.34,1.87,1.49,1.66,2.67l-.19,1.1c-.11.63-.64,1.1-1.28,1.13l-5.27.27c-.06,0-.12,0-.19,0ZM804.69,115.26v4.51c0,.72.29,1.39.81,1.88.52.5,1.2.75,1.92.71l5.27-.27c.17,0,.32-.13.35-.31l.19-1.1c.12-.68-.29-1.34-.96-1.54l-1.75-.51c-1.01-.29-1.84-1.06-2.21-2.05l-.28-.73c-.16-.43-.48-.76-.9-.94-.42-.18-.88-.19-1.3-.02l-.82.33c-.11.04-.22.05-.33.02Z"/>
            <path class="cls-8" d="M827.4,123.59c-.06,0-.12,0-.19,0l-5.27-.27c-.64-.03-1.17-.5-1.28-1.13l-.2-1.1c-.21-1.19.5-2.34,1.66-2.67l1.75-.51c.71-.21,1.3-.75,1.56-1.44l.28-.73c.26-.68.77-1.21,1.43-1.51.67-.29,1.4-.3,2.08-.03l.78.31v-10.5c0-.17.09-.34.24-.43l10.64-6.46c.23-.14.54-.07.69.17.14.24.07.54-.17.69l-10.4,6.31v15.69c0,1-.4,1.92-1.12,2.61-.68.64-1.55.99-2.47.99ZM828.21,115.01c-.23,0-.46.05-.67.14-.42.18-.74.52-.9.94l-.28.73c-.37.99-1.2,1.75-2.21,2.05l-1.75.51c-.67.19-1.08.86-.96,1.54l.2,1.1c.03.17.17.3.35.31l5.27.27c.71.04,1.4-.22,1.92-.71.52-.5.81-1.16.81-1.88v-4.51c-.11.03-.22.03-.33-.02l-.82-.33c-.2-.08-.42-.12-.63-.12Z"/>
            <path class="cls-8" d="M817.72,116.04c-1,0-2-.18-2.96-.54l-3.24-1.22c-.26-.1-.39-.39-.29-.64.1-.26.38-.39.64-.29l3.24,1.22c1.78.67,3.73.63,5.48-.1l3.04-1.27c.26-.11.55.01.65.27.11.25-.01.55-.27.65l-3.04,1.27c-1.05.44-2.15.66-3.26.66Z"/>
            <path class="cls-8" d="M822.16,130.55h-8.41c-.14,0-.28-.06-.38-.17l-3.79-4.31c-.15-.17-.17-.42-.04-.61.13-.19.37-.27.58-.19l2.44.9h8.36c.28,0,.5.22.5.5s-.22.5-.5.5h-8.45c-.06,0-.12-.01-.17-.03l-.67-.25,2.34,2.66h7.94l2.5-3.06c.18-.21.49-.25.7-.07s.25.49.07.7l-2.65,3.25c-.1.12-.24.18-.39.18Z"/>
            <path class="cls-8" d="M790.03,145.27c-.08,0-.16-.02-.23-.06-.25-.13-.34-.43-.22-.67l2.22-4.33-1.09-16.36-.56-12.92c-.01-.28.2-.51.48-.52.29-.02.51.2.52.48l.55,12.91,1.09,16.49c0,.09-.01.18-.05.26l-2.29,4.45c-.09.17-.26.27-.44.27Z"/>
            <path class="cls-8" d="M781.79,181.34c-.27,0-.49-.22-.5-.49l-.25-9.9-9.64-.89c-.15-.01-.28-.09-.36-.21-.08-.12-.11-.27-.07-.42l3.19-11.8c.02-.09.07-.17.14-.23l11.82-11.12c.2-.19.52-.18.71.02.19.2.18.52-.02.71l-11.72,11.02-3,11.09,9.49.87c.25.02.45.23.45.49l.26,10.34c0,.28-.21.51-.49.51h-.01Z"/>
            <path class="cls-8" d="M782.45,161.77c-.12,0-.23-.04-.33-.12-.21-.18-.23-.5-.05-.71l6.11-7.02c.18-.21.5-.23.71-.05.21.18.23.5.05.71l-6.11,7.02c-.1.11-.24.17-.38.17Z"/>
            <path class="cls-8" d="M790.03,176.17c-.1,0-.21-.03-.3-.1-.22-.17-.27-.48-.1-.7l5.77-7.69-.21-9.9c0-.28.21-.5.49-.51.31,0,.5.21.51.49l.21,10.08c0,.11-.03.22-.1.31l-5.87,7.82c-.1.13-.25.2-.4.2Z"/>
            <path class="cls-8" d="M693.63,216.52c-.29,0-.59-.06-.88-.18-.86-.36-1.4-1.16-1.4-2.09v-27.85c0-.14.06-.28.17-.38l30.5-26.75c.09-.08.21-.12.33-.12h40.54l7.44-3.64c.24-.12.55-.02.67.23.12.25.02.55-.23.67l-7.54,3.69c-.07.03-.14.05-.22.05h-40.47l-30.18,26.48v27.62c0,.62.4,1.01.78,1.17.38.16.94.17,1.38-.27l1.81-1.81c.2-.2.51-.2.71,0s.2.51,0,.71l-1.81,1.81c-.44.44-1,.67-1.59.67Z"/>
            <path class="cls-8" d="M777.31,84.48s-.06,0-.09,0c-.08-.01-8.24-1.47-16.71-6.7-8.57-5.29-11.7-19.73-11.83-20.34-.03-.15,0-.31.11-.43s.25-.18.41-.17c.9.05,22.05,1.38,28.77,8.1,6.03,6.03,10.11,13.05,10.84,14.36l7.05,1.27-.44-3.34c-.02-.15.03-.3.13-.41.1-.11.25-.17.4-.16l5.81.43,3.2-12.39c.07-.27.34-.43.61-.36.27.07.43.34.36.61l-3.3,12.79c-.06.23-.26.4-.52.37l-5.62-.42.45,3.41c.02.16-.04.32-.15.43-.12.11-.27.16-.43.13l-7.96-1.43c-.15-.03-.28-.12-.35-.25-.04-.08-4.26-7.81-10.79-14.34-5.8-5.8-23.74-7.48-27.45-7.76.72,2.89,4.02,14.6,11.22,19.05,8.3,5.12,16.28,6.55,16.36,6.56.27.05.46.31.41.58-.04.24-.25.41-.49.41Z"/>
            <path class="cls-8" d="M774.1,70.91c-.11,0-.22-.03-.31-.1l-15.43-11.99c-.22-.17-.26-.48-.09-.7.17-.22.48-.26.7-.09l15.43,11.99c.22.17.26.48.09.7-.1.13-.25.19-.39.19Z"/>
            <path class="cls-8" d="M791.22,85.21s-.01,0-.02,0l-7.65-.31c-.14,0-.27-.07-.36-.17l-6.51-7.58-8.99-5.25c-.24-.14-.32-.44-.18-.68.14-.24.45-.32.68-.18l9.06,5.29s.09.06.13.11l6.42,7.48,7.43.3c.28.01.49.24.48.52-.01.27-.23.48-.5.48Z"/>
            <path class="cls-8" d="M767.95,78.59c-.24,0-.46-.18-.49-.43-.04-.27.15-.53.42-.57l9.06-1.33c.28-.04.53.15.57.42.04.27-.15.53-.42.57l-9.06,1.33s-.05,0-.07,0Z"/>
            <path class="cls-8" d="M858.02,84.48c-.26,0-.48-.21-.5-.47-.02-.28.2-.51.47-.53.04,0,3.95-.28,14.93-5.32,9.69-4.44,11.25-17.45,11.47-20.3-2.45.2-12.58,1.26-24.07,6.06-12.97,5.42-14.53,14.67-14.55,14.77-.03.18-.15.33-.31.39l-6.57,2.55c-.25.1-.54-.02-.64-.28l-1.37-3.38-4.07.61c-.24.03-.46-.1-.54-.32l-4.79-12.56c-.1-.26.03-.55.29-.65.26-.1.55.03.64.29l4.65,12.19,4.06-.61c.24-.03.45.09.54.31l1.33,3.29,5.86-2.27c.36-1.69,2.76-10.09,15.1-15.25,13.3-5.56,24.85-6.17,24.96-6.17.14-.01.27.04.37.14.1.1.15.23.15.37,0,.16-.67,16.5-12.09,21.73-11.23,5.14-15.14,5.4-15.3,5.41,0,0-.02,0-.03,0Z"/>
            <path class="cls-8" d="M863.06,70.91c-.13,0-.26-.05-.36-.15-.19-.2-.19-.52.01-.71l12.08-11.63c.2-.19.51-.19.71.01.19.2.19.52-.01.71l-12.08,11.63c-.1.09-.22.14-.35.14Z"/>
            <path class="cls-8" d="M850.87,84.48h-6.39c-.28,0-.5-.22-.5-.5s.22-.5.5-.5h6.16l5.43-6.38s.08-.08.12-.11l8.25-4.91c.23-.14.54-.06.69.17.14.24.06.54-.17.69l-8.18,4.87-5.53,6.5c-.09.11-.23.18-.38.18Z"/>
            <path class="cls-8" d="M865.92,78.74s-.03,0-.04,0l-9.46-.82c-.28-.02-.48-.27-.46-.54.02-.27.27-.48.54-.45l9.46.82c.28.02.48.27.46.54-.02.26-.24.46-.5.46Z"/>
            <path class="cls-8" d="M833.96,62.27c-.17,0-.33-.08-.42-.23-.15-.23-.08-.54.15-.69l16.51-10.47c.06-.04.13-.06.2-.07l12.6-1.72c.27-.04.53.15.56.43.04.27-.15.53-.43.56l-12.49,1.71-16.42,10.42c-.08.05-.18.08-.27.08Z"/>
            <path class="cls-8" d="M843.31,67.6c-.15,0-.3-.07-.4-.2-.16-.22-.12-.54.11-.7l14.45-10.63s.07-.04.11-.06l53.21-21.8,22.22-8.34,5.66-6.46c.07-.08.17-.14.27-.16l7.13-1.56c1.04-1.17,9.43-10.92,10.54-20.85-2.98,2.72-12.11,10.85-15.71,11.85-.1.03-.2.02-.3-.01l-4.53-1.59c-.16-.06-.28-.19-.32-.35s0-.34.12-.46c.25-.27,24.85-27.14,11.51-42.53,0,4.6-.4,19.96-5.04,25.3-5.28,6.07-10.77,10.11-10.82,10.15-.22.16-.54.12-.7-.11-.16-.22-.12-.54.11-.7.05-.04,5.45-4.02,10.66-10,5.12-5.88,4.79-25.72,4.78-25.92,0-.2.12-.39.3-.47.19-.08.41-.04.55.11,14.66,14.66-6.52,40.17-10.12,44.28l3.68,1.29c4.14-1.33,15.97-12.32,16.09-12.44.15-.14.37-.17.55-.09s.3.27.29.48c-.53,11.32-10.58,22.39-11,22.85-.07.08-.16.13-.26.15l-7.13,1.56-5.63,6.43c-.05.06-.12.11-.2.14l-22.32,8.38-53.14,21.77-14.41,10.6c-.09.07-.19.1-.3.1Z"/>
            <path class="cls-8" d="M920.61,16.39c-.05,0-.11,0-.16-.03-.26-.09-.4-.37-.31-.64.02-.07,2.43-7.33-.15-19.89-2.57-12.5-22.76-24.21-22.96-24.33-.22-.13-.31-.4-.21-.63.1-.23.36-.35.6-.29,11.79,3.37,22.93,13.53,26.11,16.61-.92-21-14.76-29.14-14.9-29.22-.22-.13-.31-.4-.21-.64.11-.23.37-.35.61-.27,25.74,8.52,22.33,36.46,22.29,36.74-.04.27-.3.46-.56.43-.27-.04-.47-.29-.43-.56.04-.26,3.04-24.93-18.3-34.38,4.39,3.82,12.23,12.89,12.54,29.14,0,.21-.12.39-.31.47-.19.08-.41.03-.55-.12-.11-.12-10.41-10.74-22.36-15.75,6.13,4.11,17.66,12.97,19.63,22.59,2.64,12.86.22,20.11.12,20.42-.07.21-.26.34-.47.34Z"/>
            <path class="cls-8" d="M849.75,52.25c-.08,0-.16-.02-.24-.06-.24-.13-.33-.43-.2-.68,9.18-17.01-2.13-27.52-2.62-27.96-.17-.15-.21-.41-.11-.61.11-.2.35-.3.57-.25,5.76,1.49,10.83,8.08,12.81,10.96.1-1.75.4-5.09,1.29-10.95,1.43-9.49-.77-24.1-.8-24.25-.04-.25.11-.48.35-.55.24-.07.49.04.6.26,13.33,28.07,1.77,42.58-1.25,45.71,2.53.47,11.03.93,25.57-9.44,17.55-12.52,11.14-40.7,11.07-40.98-.05-.23.06-.47.28-.57.21-.1.47-.03.61.16,11.28,15.51,6.23,31.72,3.93,37.26,1.99-1.47,5.99-4.11,13.47-7.98,11.68-6.04,13.11-21.71,13.12-21.87.02-.28.29-.48.54-.46.28.02.48.26.46.54-.01.16-1.49,16.39-13.66,22.68-11.8,6.09-14.89,9.16-14.92,9.19-.18.18-.46.2-.65.05-.2-.15-.26-.42-.14-.64.1-.19,9.77-18.36-1.62-36.23,1.14,7.18,3.15,28.93-11.9,39.67-18.05,12.87-26.96,9.5-27.33,9.35-.16-.07-.28-.21-.31-.39-.03-.17.04-.35.18-.46.16-.13,15.34-13.17,3.04-42.09.57,4.95,1.39,14.36.36,21.19-1.43,9.47-1.32,12.35-1.32,12.38.01.23-.13.43-.35.5s-.45-.02-.57-.22c-.06-.09-5.15-8.35-11.25-11.18,2.95,3.66,9,13.67,1.45,27.65-.09.17-.26.26-.44.26Z"/>
            <path class="cls-8" d="M797.88,61.3c-.09,0-.18-.02-.27-.08l-16.42-10.42-12.49-1.71c-.27-.04-.47-.29-.43-.56.04-.27.29-.46.56-.43l12.6,1.72c.07,0,.14.04.2.07l16.51,10.47c.23.15.3.46.15.69-.09.15-.26.23-.42.23Z"/>
            <path class="cls-8" d="M788.53,66.63c-.1,0-.21-.03-.3-.1l-14.41-10.6-53.15-21.77-22.31-8.37c-.08-.03-.15-.08-.2-.14l-5.63-6.43-7.13-1.56c-.1-.02-.19-.07-.26-.15-.43-.47-10.47-11.53-11-22.85,0-.2.1-.39.29-.48.19-.08.4-.05.55.09.12.11,11.94,11.11,16.09,12.44l3.68-1.29c-3.6-4.11-24.77-29.62-10.12-44.28.15-.14.36-.19.55-.11.19.08.31.27.3.47,0,.2-.33,20.03,4.78,25.91,5.21,5.99,10.6,9.96,10.66,10,.22.16.27.48.11.7-.16.22-.47.27-.7.11-.05-.04-5.54-4.08-10.82-10.15-4.64-5.34-5.03-20.7-5.04-25.3-13.34,15.4,11.25,42.26,11.51,42.53.12.12.16.3.12.46s-.16.3-.32.35l-4.53,1.59c-.1.03-.2.04-.3.01-3.6-1-12.73-9.13-15.71-11.85,1.11,9.94,9.5,19.69,10.54,20.85l7.13,1.56c.1.02.2.08.27.16l5.66,6.46,22.21,8.33,53.23,21.8s.07.04.11.06l14.45,10.63c.22.16.27.48.11.7-.1.13-.25.2-.4.2Z"/>
            <path class="cls-8" d="M711.23,15.42c-.21,0-.4-.13-.47-.34-.1-.3-2.53-7.56.12-20.42,1.98-9.62,13.5-18.48,19.63-22.59-11.95,5.01-22.25,15.63-22.36,15.75-.14.15-.36.2-.55.12-.19-.08-.31-.27-.31-.47.31-16.25,8.15-25.32,12.54-29.14-21.34,9.45-18.34,34.12-18.3,34.38.04.27-.16.52-.43.56-.27.03-.53-.16-.56-.43-.04-.28-3.45-28.22,22.29-36.74.24-.08.51.04.61.27.11.23.01.51-.21.64-.14.08-13.98,8.25-14.9,29.22,3.18-3.08,14.32-13.24,26.11-16.61.24-.07.5.05.6.29.1.23,0,.5-.21.63-.2.12-20.4,11.83-22.96,24.33-2.59,12.59-.17,19.82-.15,19.89.09.26-.05.55-.31.64-.05.02-.11.03-.16.03Z"/>
            <path class="cls-8" d="M782.09,51.28c-.18,0-.35-.1-.44-.26-7.55-13.98-1.5-23.99,1.45-27.65-6.1,2.83-11.19,11.09-11.25,11.18-.12.19-.35.29-.57.22-.22-.07-.36-.27-.35-.5,0-.03.11-2.91-1.32-12.38-1.03-6.84-.21-16.24.36-21.19-12.33,28.96,2.88,41.96,3.04,42.09.14.11.2.29.18.46-.03.17-.14.32-.31.39-.37.15-9.28,3.52-27.33-9.35-15.05-10.74-13.04-32.48-11.9-39.67-11.39,17.87-1.72,36.05-1.62,36.23.12.22.06.49-.14.64-.2.15-.48.13-.65-.05-.03-.03-3.12-3.09-14.92-9.19-12.17-6.29-13.65-22.51-13.66-22.68-.02-.27.18-.52.46-.54.25-.02.52.18.54.46.01.16,1.45,15.84,13.12,21.87,7.48,3.86,11.48,6.5,13.47,7.98-2.3-5.54-7.35-21.75,3.93-37.26.14-.19.4-.26.61-.16.22.1.33.34.28.57-.07.28-6.47,28.46,11.07,40.98,14.53,10.36,23.04,9.92,25.57,9.44-3.02-3.12-14.58-17.64-1.25-45.71.11-.22.36-.34.6-.26.24.07.39.31.35.55-.02.15-2.23,14.75-.8,24.25.88,5.86,1.19,9.2,1.29,10.95,1.98-2.88,7.05-9.46,12.81-10.96.22-.06.46.04.57.25.11.2.07.45-.11.61-.49.44-11.8,10.95-2.62,27.96.13.24.04.55-.2.68-.08.04-.16.06-.24.06Z"/>
          </g>
          <g class="cls-3">
            <path class="cls-9" d="M197.88,208.9h0c-2.22,0-4.44-.27-6.58-.8-3.63.84-7.46.93-11.14.27-1.62.29-3.27.44-4.91.44h-24.25c-15.67,0-30.19-7.8-38.85-20.86-8.66-13.06-10.19-29.47-4.09-43.91L171.76-6.7c7.3-17.27,24.13-28.43,42.88-28.44,0,0,28.27,0,28.28,0,.29,0,.57,0,.86.01l113.93.26c17.58.04,32.8,10.74,38.78,27.27,5.98,16.53,1.14,34.5-12.34,45.78l-21.48,17.97c2.8,2.54,5.3,5.43,7.41,8.58,8.63,12.85,10.33,29.09,4.55,43.45-.18.45-18.77,46.52-21.17,52.55-5.68,14.25-15.4,26.33-28.1,34.93-12.7,8.61-27.52,13.16-42.86,13.16-20.61,0-50.03.03-82.84.08h-1.76ZM191.3,207.59s.04,0,.06,0c2.13.53,4.32.8,6.52.8h1.76c32.81-.05,62.23-.08,82.84-.09,15.24,0,29.96-4.52,42.58-13.07,12.62-8.55,22.27-20.55,27.92-34.71,2.41-6.02,20.99-52.1,21.18-52.55,5.72-14.2,4.03-30.27-4.5-42.99-2.15-3.2-4.69-6.12-7.55-8.68-.05-.05-.08-.12-.08-.19,0-.07.03-.14.09-.19l21.7-18.16c13.32-11.14,18.1-28.89,12.19-45.22s-20.95-26.9-38.31-26.94l-113.93-.26c-.29,0-.57-.01-.85-.01h-28.28c-18.55.01-35.2,11.06-42.42,28.14l-63.71,150.75c-6.03,14.28-4.52,30.52,4.04,43.44,8.57,12.92,22.93,20.63,38.44,20.63h24.25c1.63,0,3.27-.15,4.87-.44.03,0,.06,0,.09,0,3.65.67,7.44.57,11.04-.27.02,0,.04,0,.06,0Z"/>
            <path class="cls-1" d="M197.88,209.65c-2.22,0-4.44-.26-6.59-.78-3.64.82-7.46.91-11.14.26-1.62.28-3.27.43-4.91.43h-24.25c-15.92,0-30.68-7.92-39.48-21.19-8.8-13.27-10.35-29.95-4.15-44.61L171.07-6.99c7.42-17.55,24.52-28.89,43.57-28.9h28.28c.29,0,.59,0,.88,0l113.9.26c17.9.04,33.39,10.94,39.48,27.77,6.09,16.83,1.16,35.12-12.57,46.61l-20.82,17.42c2.59,2.44,4.91,5.17,6.9,8.13,8.76,13.06,10.49,29.56,4.62,44.15-.18.45-18.77,46.52-21.17,52.54-5.74,14.39-15.55,26.59-28.38,35.28-12.82,8.69-27.79,13.29-43.28,13.29-20.49,0-49.9.03-82.84.08h-1.76s0,0,0,0ZM191.3,206.84c.08,0,.16,0,.24.03,2.07.51,4.2.77,6.34.77h1.76c32.93-.05,62.35-.08,82.84-.09,15.09,0,29.67-4.48,42.16-12.94,12.49-8.47,22.05-20.35,27.64-34.36,2.41-6.03,21-52.1,21.18-52.55,5.62-13.97,3.97-29.78-4.43-42.29-2.11-3.15-4.61-6.02-7.42-8.54-.22-.19-.34-.47-.33-.76,0-.29.14-.56.36-.75l21.7-18.16c13.07-10.94,17.77-28.36,11.97-44.39s-20.56-26.41-37.61-26.45l-113.93-.26c-.3,0-.57-.01-.85-.01h-28.28c-18.25.01-34.63,10.88-41.73,27.68l-63.71,150.75c-5.94,14.05-4.45,30.02,3.98,42.73,8.43,12.71,22.56,20.3,37.81,20.3h24.25c1.58,0,3.18-.14,4.73-.43.12-.02.24-.02.36,0,3.54.65,7.24.56,10.74-.26.08-.02.15-.03.23-.03Z"/>
          </g>
          <g class="cls-2">
            <path class="cls-9" d="M212.35,176.16h0c-1.62,0-3.24-.2-4.82-.58-2.66.61-5.46.68-8.15.19-1.18.21-2.39.32-3.59.32h-17.73c-11.48,0-22.12-5.71-28.46-15.28-6.34-9.57-7.46-21.59-3-32.17l46.58-110.22c5.35-12.65,17.68-20.83,31.41-20.84h20.68c.21,0,.42,0,.63,0l83.3.19c12.88.03,24.04,7.87,28.42,19.99,4.38,12.11.83,25.28-9.05,33.54l-15.64,13.09c2.03,1.85,3.84,3.94,5.37,6.23,6.32,9.41,7.57,21.31,3.33,31.83l-.11.28c-3.22,7.97-13.83,34.28-15.37,38.14-4.16,10.43-11.27,19.27-20.57,25.57-9.3,6.3-20.15,9.63-31.38,9.63-14.78,0-36.29.02-60.57.06h-1.29ZM207.53,175.07s.04,0,.06,0c1.55.39,3.15.58,4.75.58h1.29c24.28-.04,45.79-.06,60.57-.06,11.13,0,21.88-3.3,31.1-9.55,9.21-6.24,16.26-15.01,20.39-25.35,1.54-3.86,12.15-30.17,15.37-38.14l.11-.28c4.17-10.37,2.94-22.09-3.29-31.37-1.57-2.33-3.42-4.46-5.51-6.33-.05-.05-.08-.12-.08-.19,0-.07.03-.14.09-.19l15.87-13.27c9.71-8.13,13.21-21.08,8.9-32.99-4.31-11.91-15.28-19.63-27.95-19.66l-83.3-.19c-.21,0-.42,0-.62,0h-20.68c-13.54,0-25.68,8.07-30.95,20.54l-46.58,110.22c-4.4,10.42-3.3,22.27,2.95,31.7,6.25,9.43,16.74,15.06,28.05,15.06h17.73c1.19,0,2.38-.11,3.55-.32.03,0,.06,0,.09,0,2.65.49,5.42.42,8.05-.19.02,0,.04,0,.06,0Z"/>
            <path class="cls-1" d="M212.35,176.91h0c-1.62,0-3.25-.19-4.82-.56-2.66.59-5.45.65-8.14.19-1.18.21-2.39.31-3.59.31h-17.73c-11.73,0-22.61-5.84-29.09-15.61-6.48-9.78-7.63-22.07-3.06-32.87l46.58-110.22c5.46-12.93,18.07-21.29,32.1-21.29h20.68c.22,0,.43,0,.65,0l83.28.19c13.2.03,24.63,8.07,29.12,20.48,4.49,12.41.85,25.9-9.27,34.38l-14.99,12.55c1.82,1.74,3.45,3.68,4.86,5.78,6.46,9.62,7.73,21.78,3.41,32.53l-.11.28c-3.22,7.97-13.83,34.28-15.37,38.14-4.22,10.57-11.43,19.53-20.85,25.92-9.42,6.39-20.42,9.76-31.8,9.76-14.98,0-36.49.02-60.57.06h-1.29ZM207.53,174.32c.08,0,.16,0,.24.03,1.49.37,3.03.56,4.57.56h1.29c24.08-.04,45.59-.06,60.57-.06,10.98,0,21.59-3.26,30.68-9.42s16.04-14.81,20.11-25c1.54-3.86,12.15-30.17,15.37-38.14l.11-.28c4.08-10.13,2.88-21.6-3.21-30.67-1.53-2.28-3.34-4.37-5.38-6.19-.22-.19-.34-.47-.33-.76,0-.29.14-.56.36-.75l15.87-13.27c9.47-7.92,12.88-20.55,8.67-32.16-4.2-11.61-14.9-19.13-27.25-19.16l-83.3-.19c-.23,0-.42,0-.62,0h-20.68c-13.23,0-25.11,7.89-30.26,20.08l-46.58,110.22c-4.31,10.19-3.23,21.77,2.88,30.99s16.36,14.72,27.42,14.72h17.73c1.14,0,2.29-.1,3.41-.31.12-.02.24-.02.36,0,2.56.47,5.22.4,7.74-.19.08-.02.15-.03.23-.03Z"/>
          </g>
          <g class="cls-2">
            <path class="cls-9" d="M222.14,158.01h0c-1.22,0-2.44-.15-3.62-.43-2,.46-4.11.51-6.12.15-.89.16-1.8.24-2.7.24h-13.32c-8.64,0-16.65-4.3-21.43-11.5-4.78-7.2-5.62-16.26-2.25-24.22l34.99-82.79c4.03-9.53,13.31-15.68,23.65-15.69h15.53c.16,0,.32,0,.47,0l62.56.14c9.7.02,18.1,5.93,21.4,15.05,3.3,9.12.63,19.04-6.81,25.26l-11.7,9.79c1.51,1.38,2.85,2.94,3.99,4.65,4.76,7.09,5.7,16.05,2.51,23.97l-.5,1.25c-6.62,16.42-10.37,25.71-11.12,27.61-3.13,7.85-8.48,14.5-15.47,19.24-6.99,4.74-15.15,7.25-23.6,7.25-11.25,0-27.41.02-45.49.05h-.97ZM218.52,157.07s.04,0,.06,0c1.16.29,2.36.43,3.55.43h.97c18.08-.03,34.24-.05,45.49-.05,8.35,0,16.41-2.48,23.32-7.16,6.91-4.68,12.2-11.25,15.29-19.01.76-1.9,4.5-11.19,11.12-27.61l.5-1.25c3.13-7.77,2.21-16.55-2.46-23.5-1.17-1.75-2.56-3.34-4.13-4.74-.05-.05-.08-.12-.08-.19,0-.07.03-.14.09-.19l11.92-9.97c7.28-6.09,9.89-15.79,6.66-24.71-3.23-8.92-11.45-14.7-20.93-14.72l-62.57-.14c-.16,0-.31,0-.46,0h-15.53c-10.14,0-19.24,6.04-23.19,15.39l-34.99,82.79c-3.3,7.81-2.47,16.68,2.21,23.75,4.68,7.06,12.54,11.28,21.01,11.28h13.32c.89,0,1.78-.08,2.65-.24.03,0,.06,0,.09,0,1.98.36,4.05.31,6.02-.15.02,0,.04,0,.06,0Z"/>
            <path class="cls-1" d="M222.14,158.76c-1.22,0-2.44-.14-3.62-.41-2,.44-4.1.48-6.11.14-.89.15-1.8.23-2.7.23h-13.32c-8.89,0-17.14-4.43-22.05-11.84-4.92-7.41-5.78-16.73-2.32-24.92l34.99-82.79c4.14-9.8,13.7-16.14,24.34-16.15h15.53c.17,0,.33,0,.5,0l62.54.14c10.02.02,18.7,6.12,22.11,15.55,3.41,9.42.65,19.66-7.04,26.09l-11.05,9.25c1.3,1.27,2.47,2.68,3.49,4.19,4.9,7.29,5.86,16.52,2.58,24.67l-.5,1.25c-2.09,5.17-9.98,24.75-11.12,27.6-3.19,7.99-8.63,14.76-15.75,19.58-7.12,4.82-15.42,7.38-24.02,7.38-11.25,0-27.41.02-45.49.05h-.97s0,0,0,0ZM218.52,156.32c.08,0,.16,0,.24.03,1.1.27,2.24.41,3.37.41h.97c18.09-.03,34.24-.05,45.49-.05,8.2,0,16.12-2.43,22.9-7.03,6.78-4.6,11.98-11.05,15.01-18.67,1.14-2.86,9.04-22.44,11.12-27.61l.5-1.25c3.03-7.54,2.14-16.06-2.39-22.81-1.14-1.7-2.49-3.24-4-4.6-.22-.19-.34-.47-.33-.76,0-.29.14-.56.36-.75l11.92-9.97c7.03-5.88,9.56-15.26,6.44-23.88-3.12-8.62-11.06-14.21-20.23-14.23l-62.57-.14c-.17,0-.32,0-.46,0h-15.53c-9.84,0-18.67,5.87-22.5,14.93l-34.99,82.79c-3.2,7.57-2.4,16.19,2.14,23.04s12.17,10.94,20.39,10.94h13.32c.84,0,1.69-.08,2.52-.23.12-.02.24-.02.36,0,1.88.34,3.85.3,5.71-.14.08-.02.15-.03.23-.03Z"/>
          </g>
          <g class="cls-3">
            <path class="cls-9" d="M180.25,248.81h0c-2.95,0-5.89-.36-8.74-1.06-4.83,1.12-9.91,1.24-14.8.35-2.15.39-4.34.59-6.52.59h-32.2c-20.78,0-40.04-10.34-51.52-27.65-11.48-17.32-13.51-39.08-5.42-58.22L145.64-37.34c9.68-22.9,32-37.7,56.86-37.71,0,0,37.54-.01,37.55-.01.38,0,.76,0,1.13.02l151.27.34c23.3.05,43.49,14.24,51.42,36.16,7.93,21.91,1.51,45.73-16.37,60.69l-28.59,23.92c3.75,3.39,7.08,7.23,9.9,11.44,11.44,17.04,13.69,38.58,6.03,57.62-.22.56-24.94,61.83-28.11,69.77-7.54,18.9-20.44,34.93-37.28,46.35-16.85,11.42-36.51,17.46-56.87,17.46-27.28,0-66.35.04-109.99.11h-2.34ZM171.51,247.24s.04,0,.06,0c2.83.7,5.75,1.06,8.68,1.06h2.34c43.64-.07,82.71-.11,109.99-.11,20.25,0,39.82-6.01,56.58-17.37,16.76-11.36,29.59-27.31,37.1-46.12,3.17-7.94,27.89-69.21,28.12-69.77,7.6-18.89,5.36-40.25-5.98-57.15-2.85-4.25-6.23-8.13-10.03-11.54-.05-.05-.08-.12-.08-.19,0-.07.03-.14.09-.19l28.81-24.11c17.71-14.82,24.07-38.42,16.22-60.13-7.86-21.71-27.85-35.78-50.95-35.83l-151.28-.34c-.38-.01-.75-.02-1.12-.02h-37.55c-24.66.02-46.8,14.7-56.4,37.42L61.51,163.01c-8.02,18.98-6.01,40.57,5.38,57.75s30.49,27.43,51.1,27.43h32.2c2.17,0,4.35-.2,6.48-.59.03,0,.06,0,.09,0,4.85.89,9.9.76,14.7-.36.02,0,.04,0,.06,0Z"/>
            <path class="cls-1" d="M180.25,249.56h0c-2.95,0-5.89-.35-8.75-1.04-4.83,1.09-9.91,1.21-14.79.35-2.15.38-4.34.58-6.52.58h-32.2c-21.03,0-40.52-10.46-52.14-27.99-11.62-17.53-13.67-39.56-5.49-58.93L144.95-37.63c9.79-23.18,32.38-38.16,57.55-38.17,0,0,37.54-.01,37.55-.01.39,0,.77,0,1.16.02l151.25.34c23.62.05,44.08,14.44,52.12,36.65,8.04,22.21,1.53,46.36-16.59,61.52l-27.93,23.37c3.53,3.28,6.69,6.98,9.38,10.99,11.58,17.25,13.86,39.05,6.11,58.32-.23.56-24.94,61.82-28.11,69.77-7.6,19.04-20.59,35.19-37.56,46.69-16.97,11.5-36.78,17.59-57.29,17.59-27.28,0-66.34.04-109.99.11h-2.34ZM171.51,246.49c.08,0,.16,0,.24.03,2.77.69,5.63,1.04,8.5,1.04h2.34c43.64-.07,82.71-.11,109.99-.11,20.1,0,39.52-5.96,56.16-17.24,16.64-11.28,29.37-27.11,36.82-45.78,3.17-7.94,27.89-69.22,28.12-69.77,7.51-18.65,5.3-39.76-5.91-56.45-2.82-4.2-6.15-8.03-9.91-11.4-.22-.19-.34-.47-.33-.76,0-.29.14-.56.36-.75l28.81-24.11c17.46-14.61,23.74-37.89,15.99-59.3-7.75-21.41-27.47-35.28-50.24-35.33l-151.28-.34c-.39-.01-.76-.02-1.12-.02h-37.55c-24.36.02-46.22,14.52-55.71,36.96L62.2,163.3c-7.92,18.75-5.94,40.08,5.31,57.04s30.12,27.1,50.48,27.1h32.2c2.12,0,4.26-.19,6.34-.58.12-.02.24-.02.36,0,4.75.87,9.7.75,14.39-.35.08-.02.15-.03.23-.03Z"/>
          </g>
          <g class="cls-3">
            <path class="cls-9" d="M159.61,295.52h0c-3.8,0-7.59-.46-11.27-1.37-6.22,1.44-12.77,1.6-19.07.46-2.77.5-5.6.76-8.41.76h-41.5c-26.75,0-51.55-13.31-66.34-35.61s-17.39-50.33-6.98-74.97L115.08-73.19c12.46-29.49,41.2-48.55,73.22-48.56,0,0,48.39-.01,48.39-.01.49,0,.97,0,1.46.02l194.97.44c30,.07,55.99,18.34,66.2,46.55,10.21,28.21,1.94,58.89-21.07,78.14l-36.91,30.88c4.85,4.38,9.16,9.35,12.81,14.79,14.73,21.94,17.63,49.68,7.77,74.2-.32.79-32.16,79.72-36.24,89.93-9.72,24.35-26.32,44.99-48.02,59.7-21.7,14.71-47.03,22.49-73.25,22.49-35.17,0-85.51.05-141.76.14h-3.02ZM148.35,293.64s.04,0,.06,0c3.65.91,7.42,1.37,11.2,1.37h3.02c56.25-.09,106.59-.14,141.76-.15,26.12,0,51.35-7.75,72.97-22.4,21.62-14.65,38.16-35.22,47.84-59.47,4.08-10.21,35.92-89.14,36.24-89.93,9.8-24.36,6.92-51.93-7.72-73.73-3.68-5.48-8.03-10.49-12.94-14.89-.05-.05-.08-.12-.08-.19,0-.07.03-.14.09-.19l37.13-31.07c22.85-19.12,31.06-49.57,20.92-77.59-10.14-28.01-35.94-46.16-65.73-46.22l-194.97-.44c-.49-.02-.97-.02-1.45-.02h-48.39c-31.82.02-60.37,18.96-72.76,48.27L6.51,184.98c-10.35,24.49-7.76,52.34,6.93,74.5,14.69,22.16,39.34,35.39,65.92,35.39h41.5c2.8,0,5.61-.26,8.36-.76.03,0,.06,0,.09,0,6.26,1.14,12.78.99,18.97-.46.02,0,.04,0,.06,0Z"/>
            <path class="cls-1" d="M159.61,296.27h0c-3.8,0-7.59-.45-11.27-1.35-6.22,1.42-12.77,1.58-19.07.45-2.77.5-5.6.75-8.41.75h-41.5c-27.01,0-52.04-13.44-66.96-35.95-14.92-22.51-17.56-50.8-7.04-75.68L114.39-73.49c12.58-29.77,41.59-49.01,73.91-49.02,0,0,48.39-.01,48.39-.01.5,0,.99,0,1.48.02l194.95.44c30.32.07,56.58,18.54,66.9,47.05,10.32,28.51,1.96,59.51-21.3,78.97l-36.25,30.33c4.64,4.27,8.77,9.1,12.29,14.34,14.87,22.15,17.8,50.15,7.84,74.89-.32.79-32.16,79.72-36.24,89.92-9.77,24.49-26.47,45.25-48.3,60.04-21.83,14.8-47.3,22.62-73.67,22.62-35.17,0-85.51.05-141.76.14h-3.02ZM148.35,292.89c.08,0,.16,0,.24.03,3.59.89,7.3,1.35,11.02,1.35h3.02c56.25-.09,106.59-.14,141.76-.15,25.97,0,51.05-7.7,72.55-22.27,21.49-14.57,37.94-35.02,47.56-59.13,4.08-10.21,35.92-89.14,36.24-89.93,9.71-24.13,6.85-51.43-7.65-73.03-3.65-5.43-7.96-10.39-12.82-14.74-.22-.19-.34-.47-.33-.76,0-.29.14-.56.36-.75l37.13-31.07c22.6-18.91,30.73-49.04,20.7-76.76-10.03-27.71-35.55-45.66-65.03-45.73l-194.97-.44c-.5-.02-.98-.02-1.45-.02h-48.39c-31.51.02-59.8,18.78-72.07,47.81L7.2,185.27c-10.25,24.26-7.68,51.84,6.87,73.79,14.55,21.95,38.96,35.05,65.3,35.05h41.5c2.75,0,5.52-.25,8.23-.75.12-.02.24-.02.36,0,6.16,1.12,12.58.97,18.67-.45.08-.02.15-.03.23-.03Z"/>
          </g>
        </g>
      </g>
    </g>
  </g>
</svg>