<?xml version="1.0" encoding="UTF-8"?>
<svg id="Resume_Design" data-name="Resume Design" xmlns="http://www.w3.org/2000/svg" viewBox="0 0 389.18 348.25">
  <defs>
    <style>
      .cls-1 {
        opacity: .2;
      }

      .cls-2 {
        fill: #62ef80;
      }
    </style>
  </defs>
  <g id="Resume_1st_page" data-name="Resume 1st page">
    <g id="Name_image_part" data-name="Name &amp;amp; image part">
      <g class="cls-1">
        <path class="cls-2" d="M207.63,311.78c-.14,0-.26-.12-.26-.27v-26.7c0-.15.12-.27.26-.27s.26.12.26.27v26.7c0,.15-.12.27-.26.27Z"/>
        <path class="cls-2" d="M211.84,311.43h0c-.14,0-.26-.12-.25-.27l.38-32.68c0-.15.11-.28.26-.27.14,0,.26.12.25.27l-.38,32.68c0,.15-.12.27-.26.27Z"/>
        <path class="cls-2" d="M207.99,282.01c-.16,0-.32-.03-.48-.08l-1.06-.37c-1.19-.42-1.99-1.63-1.95-2.94l.38-11.17-2.45-10.06c-.04-.14.05-.29.19-.33.14-.04.28.05.31.19l2.46,10.09s0,.05,0,.08l-.38,11.21c-.04,1.08.62,2.07,1.6,2.41l1.06.37c.31.11.63.06.89-.14.26-.2.41-.5.41-.84v-4.02c0-.15.12-.27.26-.27s.26.12.26.27v4.02c0,.51-.23.97-.63,1.27-.26.2-.56.3-.87.3Z"/>
        <path class="cls-2" d="M212.84,274.87s-.09-.01-.14-.04l-3.61-2.37c-.08-.05-.12-.14-.12-.24l.47-11.17-5.61-5.23c-.05-.05-.08-.11-.09-.18l-.99-14.61-5.81-2.62c-.09-.04-.16-.14-.16-.25v-11.68c0-.08.03-.15.08-.2l13.45-12.86c.1-.09.25-.09.35,0l13.31,12.66c.11.1.11.27.02.38-.09.11-.26.12-.36.02l-13.14-12.49-13.2,12.62v11.38l5.8,2.62c.09.04.15.13.15.23l.99,14.66,5.62,5.25c.06.05.09.13.09.21l-.46,11.14,3.48,2.29c.12.08.16.24.08.37-.05.08-.13.13-.22.13Z"/>
        <path class="cls-2" d="M203.33,233.8c-.13,0-.24-.1-.25-.24l-.65-5.65c0-.08.02-.16.07-.21l8.46-9.64c.1-.11.26-.12.36-.02.1.1.11.27.02.38l-8.38,9.55.64,5.53c.02.15-.08.28-.22.3-.01,0-.02,0-.03,0Z"/>
        <path class="cls-2" d="M216.88,227.08c-.07,0-.14-.03-.19-.09l-4.04-4.81c-.09-.11-.08-.28.02-.38.11-.1.27-.09.36.02l3.87,4.61,1.49-1.35c.11-.1.27-.09.36.03.09.11.08.28-.02.38l-1.68,1.53s-.11.07-.17.07Z"/>
        <path class="cls-2" d="M205.96,239.08c-.09,0-.18-.05-.22-.14-.07-.13-.03-.29.1-.37.33-.19,2.06-2.19,3.13-3.47l-.39-3.28c-.02-.15.08-.28.22-.3.14-.02.27.09.29.23l.41,3.4c0,.08-.01.15-.06.21-.47.56-2.83,3.37-3.34,3.67-.04.02-.08.03-.13.03Z"/>
        <path class="cls-2" d="M208.78,240.95s-.08-.01-.12-.03c-.12-.07-.17-.23-.1-.36l2.36-4.53c.03-.06.09-.11.15-.13l5.32-1.62c.11-.03.22.01.28.11l2.8,4.28c.08.12.05.29-.07.37-.12.08-.28.05-.36-.07l-2.69-4.12-5.04,1.54-2.31,4.43c-.05.09-.14.14-.23.14Z"/>
        <path class="cls-2" d="M208.78,255.22c-.14,0-.26-.12-.26-.27v-9.13c0-.15.12-.27.26-.27s.26.12.26.27v9.13c0,.15-.12.27-.26.27Z"/>
        <path class="cls-2" d="M212.84,271.07c-.14,0-.26-.12-.26-.27v-22.38c0-.15.12-.27.26-.27s.26.12.26.27v22.38c0,.15-.12.27-.26.27Z"/>
        <path class="cls-2" d="M211.14,245.51c-.1,0-.2-.07-.24-.17-.05-.14.02-.29.15-.35l11.36-4.56c.13-.05.28.02.33.15.05.14-.02.29-.15.35l-11.36,4.56s-.06.02-.09.02Z"/>
        <path class="cls-2" d="M222.5,241.66s-.06,0-.1-.02c-.09-.04-.15-.12-.16-.22l-.63-6.08c-.01-.1.03-.19.11-.25l7.14-5.13c.12-.08.28-.05.36.07.08.12.05.29-.07.37l-7.01,5.04.56,5.42,20.57-18.19,3.07-5.29-.57-9.7c0-.15.1-.28.24-.28.14-.01.26.1.27.25l.58,9.78c0,.05,0,.11-.04.16l-3.13,5.4s-.03.05-.05.07l-20.97,18.54s-.11.06-.17.06Z"/>
        <path class="cls-2" d="M219.62,232.8c-.07,0-.14-.03-.19-.09-.1-.11-.09-.28.02-.38l18.82-18.03-1.18-12.91c0-.09.03-.18.09-.23l4.47-3.87-1.06-15.04-2.24-7.16c-.04-.14.03-.29.16-.34.14-.05.28.03.32.17l2.25,7.19s.01.04.01.06l1.07,15.21c0,.09-.03.17-.09.23l-4.47,3.87,1.18,12.9c0,.08-.02.17-.08.22l-18.91,18.12s-.11.07-.17.07Z"/>
        <path class="cls-2" d="M245.04,205.01c-.14,0-.25-.11-.26-.26l-.65-13.81c0-.15.1-.27.24-.28.15,0,.26.11.27.26l.65,13.81c0,.15-.1.27-.24.28,0,0,0,0-.01,0Z"/>
        <path class="cls-2" d="M232.33,229.11c-.06,0-.13-.02-.18-.07-.1-.1-.11-.27-.01-.38l9.51-10.52v-15c0-.15.12-.27.26-.27s.26.12.26.27v15.11c0,.07-.03.13-.07.18l-9.58,10.59c-.05.06-.12.08-.19.08Z"/>
        <path class="cls-2" d="M222.74,221.06c-.07,0-.14-.03-.19-.08-.1-.11-.09-.28,0-.38l5.06-5.04-16.01-16.71-1.81,1.89c-.1.1-.27.1-.36,0l-9.84-10.27c-.1-.1-.1-.27,0-.38s.26-.1.36,0l9.65,10.08,1.81-1.89c.1-.1.27-.1.36,0l16.38,17.1c.05.05.08.12.08.19s-.03.14-.08.19l-5.25,5.23s-.11.07-.18.07Z"/>
        <path class="cls-2" d="M206.19,213.06c-.07,0-.13-.03-.18-.08l-4.94-5.16-2.59,2.7c-.1.1-.26.1-.36,0l-3.47-3.63-2.62,2.74c-.1.1-.26.1-.36,0s-.1-.27,0-.38l2.8-2.93c.1-.1.27-.1.36,0l3.47,3.63,2.59-2.7c.1-.1.26-.1.36,0l5.12,5.35c.1.1.1.27,0,.38-.05.05-.12.08-.18.08Z"/>
        <path class="cls-2" d="M206.95,204.37c-.07,0-.13-.03-.18-.08l-9.88-10.32-6.02,6.28c-.1.1-.26.1-.36,0s-.1-.27,0-.38l6.2-6.47c.1-.1.27-.1.36,0l10.07,10.51c.1.1.1.27,0,.38-.05.05-.12.08-.18.08Z"/>
        <path class="cls-2" d="M217.06,212.69c-.07,0-.13-.03-.18-.08l-7.36-7.68c-.1-.1-.1-.27,0-.38s.26-.1.36,0l7.17,7.49,1.49-1.55-1.77-1.85c-.1-.1-.1-.27,0-.38s.26-.1.36,0l1.95,2.04c.1.1.1.27,0,.38l-1.85,1.93c-.05.05-.11.08-.18.08Z"/>
        <path class="cls-2" d="M201.85,217.62c-.07,0-.13-.03-.18-.08l-4.84-5.05c-.1-.1-.1-.27,0-.38s.26-.1.36,0l4.84,5.05c.1.1.1.27,0,.38-.05.05-.12.08-.18.08Z"/>
        <path class="cls-2" d="M228.25,215.83c-.14,0-.26-.12-.26-.27v-22.23c0-.07.03-.14.08-.19l3.77-3.94c.1-.1.26-.1.36,0s.1.27,0,.38l-3.7,3.86v22.12c0,.15-.12.27-.26.27Z"/>
        <path class="cls-2" d="M228.27,199.12c-.07,0-.13-.03-.18-.08-.1-.1-.1-.27,0-.38l4.94-5.15v-17.45c0-.07.03-.14.08-.19l4.59-4.79-2.59-9.68c-.04-.14.04-.29.18-.33.14-.04.28.04.32.19l2.64,9.83c.03.09,0,.19-.07.26l-4.62,4.82v17.45c0,.07-.03.14-.08.19l-5.01,5.23c-.05.05-.12.08-.18.08Z"/>
        <path class="cls-2" d="M233.84,172.14c-.14,0-.26-.12-.26-.27v-5.18l-4.54-14.4c-.04-.14.03-.29.16-.34s.28.03.32.17l4.55,14.44s.01.06.01.08v5.23c0,.15-.12.27-.26.27Z"/>
        <path class="cls-2" d="M221.9,193.2s-.07,0-.11-.02c-.09-.04-.15-.13-.15-.23l-.56-11.5c0-.08.02-.15.07-.2l4.05-4.22.28-14.17c0-.15.12-.26.26-.26h0c.14,0,.26.13.25.27l-.28,14.28c0,.07-.03.14-.08.18l-4.04,4.21.53,10.85,7.75-6.47v-13.4l-1.86-12.77c-.02-.15.07-.28.22-.31.14-.02.27.08.29.22l1.87,12.81v13.56c0,.08-.03.16-.09.21l-8.24,6.88s-.1.06-.16.06ZM230.14,186.05h0,0Z"/>
        <path class="cls-2" d="M219.23,206.79c-.14,0-.26-.12-.26-.27v-12.85l-3.07-3.2c-.1-.1-.1-.27,0-.38s.26-.1.36,0l3.14,3.28c.05.05.08.12.08.19v12.96c0,.15-.12.27-.26.27Z"/>
        <path class="cls-2" d="M211.11,150.63c-.13,0-.25-.11-.26-.25l-.51-6.83c0-.1.04-.19.12-.25l1.94-1.32-2.66-4.78c-.05-.09-.05-.19,0-.28l3.29-5.47-5.36-3.99c-.12-.09-.14-.25-.06-.37.08-.12.24-.15.36-.06l5.55,4.14c.11.08.14.24.07.36l-3.33,5.55,2.7,4.86c.07.12.03.28-.08.36l-2.01,1.37.5,6.67c.01.15-.09.28-.24.29,0,0-.01,0-.02,0Z"/>
        <path class="cls-2" d="M219.01,153.59c-.08,0-.15-.04-.2-.11l-.96-1.31-2.17.68c-.65.2-1.36.18-1.99-.07l-2.18-.84-.95,1.3c-.09.12-.25.14-.36.05-.11-.09-.13-.26-.05-.38l1.07-1.46c.07-.09.19-.13.29-.09l2.36.91c.53.21,1.12.23,1.67.06l2.34-.73c.1-.03.21,0,.28.09l1.07,1.46c.09.12.06.29-.05.38-.05.04-.1.06-.16.06Z"/>
        <path class="cls-2" d="M209.3,142.18c-.08,0-.16-.04-.21-.11l-3.09-4.33c-.08-.12-.06-.29.05-.38.11-.09.27-.06.36.06l3.09,4.33c.08.12.06.29-.05.38-.05.04-.1.05-.15.05Z"/>
        <path class="cls-2" d="M218.56,150.95s-.01,0-.02,0c-.14-.01-.25-.14-.24-.29l.5-6.67-2.01-1.37c-.11-.08-.15-.24-.08-.36l2.7-4.86-3.33-5.55c-.07-.12-.04-.28.07-.36l5.55-4.14c.12-.09.28-.06.36.06.08.12.06.29-.06.37l-5.36,3.99,3.29,5.47c.05.08.05.19,0,.28l-2.66,4.78,1.94,1.32c.08.05.12.15.12.25l-.51,6.83c-.01.14-.12.25-.26.25Z"/>
        <path class="cls-2" d="M220.37,142.5c-.05,0-.11-.02-.15-.05-.11-.09-.14-.26-.05-.38l3.09-4.33c.09-.12.25-.14.36-.06.11.09.14.26.05.38l-3.09,4.33c-.05.07-.13.11-.21.11Z"/>
        <path class="cls-2" d="M208.39,146.53s-.04,0-.06,0l-2.28-.6c-.87-.23-1.45-1.11-1.34-2.04l.24-2.04c.02-.15.15-.26.29-.23.02,0,.04,0,.05.01l-1.77-1.3c-.12-.09-.14-.25-.06-.37.08-.12.24-.15.36-.07l3.56,2.62s.08.08.1.13l1.16,3.55c.03.09,0,.2-.05.27-.05.06-.12.09-.19.09ZM205.41,141.7c.04.05.07.13.06.2l-.24,2.04c-.08.66.33,1.29.95,1.45l1.82.48-.98-3-1.61-1.18Z"/>
        <path class="cls-2" d="M221.63,146.18c-.07,0-.14-.03-.19-.09-.06-.07-.08-.18-.05-.27l1.16-3.55c.02-.05.05-.1.1-.13l3.56-2.62c.12-.09.28-.06.36.07.08.12.05.29-.06.37l-1.77,1.3s.04-.01.05-.01c.14-.02.27.09.29.23l.22,1.85c.12,1.04-.52,2.02-1.49,2.28l-2.11.56s-.04,0-.06,0ZM223.01,142.53l-.98,3,1.65-.44c.72-.19,1.2-.92,1.11-1.69l-.22-1.85c0-.08.01-.15.06-.2l-1.61,1.18Z"/>
        <path class="cls-2" d="M215.78,195.5c-.07,0-.13-.03-.18-.08l-7.69-7.93c-.06-.06-.08-.14-.07-.22l.68-7.11-2.69-3.97c-.03-.05-.05-.11-.05-.17l.86-13.86-2.33-2.98s-.06-.11-.06-.17v-5.52l-2.99-4.63c-.04-.07-.05-.15-.03-.23l1.34-4.67-.95-1.48c-.08-.12-.05-.29.07-.37.12-.08.28-.05.36.07l1.02,1.59c.04.07.05.15.03.23l-1.34,4.67,2.97,4.59s.04.1.04.15v5.51l2.34,2.99c.04.05.06.12.06.19l-.86,13.87,2.7,3.98c.04.05.05.12.05.18l-.67,7.08,7.6,7.84c.1.1.1.27,0,.38-.05.05-.12.08-.18.08Z"/>
        <path class="cls-2" d="M216.56,182.82c-.07,0-.14-.03-.19-.09l-6.87-7.67s-.07-.11-.07-.17l-.45-12.84c0-.15.11-.27.25-.28,0,0,0,0,0,0,.14,0,.25.11.26.26l.45,12.74,6.36,7.1v-10c0-.08.04-.16.1-.21l3.17-2.64.47-4.35c0-.05.02-.1.05-.14l3.88-5.1v-5.69c0-.07.02-.13.07-.18l3.94-4.58-1.46-3.88c-.03-.08-.02-.16.02-.23l1.52-2.68c.07-.13.23-.17.35-.09.12.08.16.24.09.37l-1.45,2.57,1.47,3.91c.04.09.02.2-.05.28l-3.98,4.63v5.68c0,.06-.02.12-.06.17l-3.89,5.11-.47,4.39c0,.07-.04.14-.09.18l-3.15,2.63v10.55c0,.11-.06.21-.16.25-.03.01-.06.02-.09.02Z"/>
        <path class="cls-2" d="M209.73,159.73c-.48,0-.93-.19-1.27-.53-.37-.37-.58-.87-.58-1.4v-8.43l-5.63-3.68c-.12-.08-.16-.24-.08-.37.08-.13.24-.16.35-.09l5.75,3.76c.07.05.12.14.12.23v5.64l.4-.17c.34-.15.72-.14,1.07.01.34.16.6.44.74.81l.14.39c.14.37.44.66.8.77l.9.27c.6.18.96.8.85,1.44l-.1.59c-.06.34-.33.59-.66.61l-2.71.14s-.06,0-.1,0ZM208.4,155.38v2.42c0,.39.15.74.42,1.01.27.27.62.4.99.38l2.71-.14c.09,0,.16-.07.18-.16l.1-.59c.06-.37-.15-.72-.49-.83l-.9-.27c-.52-.16-.95-.57-1.14-1.1l-.14-.39c-.08-.23-.25-.41-.46-.51-.21-.1-.45-.1-.67,0l-.42.18c-.06.02-.12.03-.17,0Z"/>
        <path class="cls-2" d="M220.08,159.85s-.06,0-.1,0l-2.71-.14c-.33-.02-.6-.27-.66-.61l-.1-.59c-.11-.64.26-1.25.85-1.44l.9-.27c.37-.11.67-.4.8-.77l.14-.39c.13-.37.39-.65.74-.81.34-.16.72-.16,1.07-.01l.4.17v-5.64c0-.09.05-.18.12-.23l5.47-3.47c.12-.08.28-.04.35.09.07.13.03.29-.09.37l-5.35,3.39v8.42c0,.53-.2,1.03-.58,1.4-.35.35-.8.53-1.27.53ZM220.5,155.25c-.12,0-.23.03-.34.08-.21.1-.38.28-.46.51l-.14.39c-.19.53-.62.94-1.14,1.1l-.9.27c-.34.1-.55.46-.49.83l.1.59c.02.09.09.16.18.16l2.71.14c.37.02.72-.12.99-.38.27-.27.42-.62.42-1.01v-2.42c-.05.02-.11.01-.17,0l-.42-.18c-.11-.04-.21-.07-.32-.07Z"/>
        <path class="cls-2" d="M215.1,155.8c-.52,0-1.03-.1-1.53-.29l-1.67-.65c-.13-.05-.2-.21-.15-.35.05-.14.2-.21.33-.16l1.67.65c.92.36,1.92.34,2.82-.06l1.56-.68c.13-.06.28,0,.34.14.05.14,0,.29-.14.35l-1.56.68c-.54.23-1.11.35-1.68.35Z"/>
        <path class="cls-2" d="M217.39,163.59h-4.33c-.07,0-.14-.03-.19-.09l-1.95-2.31c-.08-.09-.09-.23-.02-.33.07-.1.19-.14.3-.1l1.25.48h4.3c.14,0,.26.12.26.27s-.12.27-.26.27h-4.35s-.06,0-.09-.02l-.34-.13,1.2,1.43h4.09l1.29-1.65c.09-.12.25-.13.36-.04s.13.26.04.38l-1.36,1.74c-.05.06-.12.1-.2.1Z"/>
        <path class="cls-2" d="M200.85,171.5s-.08,0-.12-.03c-.13-.07-.18-.23-.11-.36l1.14-2.32-.56-8.79-.29-6.94c0-.15.1-.27.25-.28.15-.01.26.11.27.26l.29,6.93.56,8.85s0,.1-.03.14l-1.18,2.39c-.05.09-.14.15-.23.15Z"/>
        <path class="cls-2" d="M196.61,190.87c-.14,0-.25-.12-.26-.26l-.13-5.32-4.96-.48c-.08,0-.14-.05-.19-.11-.04-.07-.06-.15-.04-.22l1.64-6.34s.04-.09.07-.13l6.08-5.97c.1-.1.27-.1.36.01.1.11.09.28-.01.38l-6.03,5.92-1.54,5.96,4.88.47c.13.01.23.12.23.26l.14,5.55c0,.15-.11.27-.25.28h0Z"/>
        <path class="cls-2" d="M196.95,180.36c-.06,0-.12-.02-.17-.07-.11-.1-.12-.27-.03-.38l3.14-3.77c.09-.11.26-.12.36-.03.11.1.12.27.03.38l-3.14,3.77c-.05.06-.12.09-.19.09Z"/>
        <path class="cls-2" d="M200.85,188.09c-.05,0-.11-.02-.15-.05-.11-.09-.14-.26-.05-.38l2.97-4.13-.11-5.32c0-.15.11-.27.25-.27.16,0,.26.11.26.26l.11,5.41c0,.06-.02.12-.05.17l-3.02,4.2c-.05.07-.13.11-.21.11Z"/>
        <path class="cls-2" d="M198.52,184.35c-.06,0-.12-.02-.17-.07-.11-.1-.12-.27-.03-.38l3.14-3.77c.09-.11.26-.12.36-.03.11.1.12.27.03.38l-3.14,3.77c-.05.06-.12.09-.19.09Z"/>
        <path class="cls-2" d="M201.18,253.91c-.11,0-.22-.08-.25-.2l-4.13-15.49c-.04-.14.04-.29.18-.33.14-.04.28.04.32.19l4.13,15.49c.04.14-.04.29-.18.33-.02,0-.05,0-.07,0Z"/>
        <path class="cls-2" d="M221.87,264.05c-.14,0-.26-.12-.26-.27v-19.68c0-.15.12-.27.26-.27s.26.12.26.27v19.68c0,.15-.12.27-.26.27Z"/>
        <path class="cls-2" d="M223.66,295.09c-.14,0-.26-.12-.26-.27v-21.06l-1.72-1.79c-.05-.05-.08-.12-.08-.19v-3.85c0-.15.12-.27.26-.27s.26.12.26.27v3.73l1.72,1.79c.05.05.08.12.08.19v21.17c0,.15-.12.27-.26.27Z"/>
        <path class="cls-2" d="M227.32,300.81c-.14,0-.26-.12-.26-.27v-28.65l-2.66-2.78c-.05-.05-.08-.12-.08-.19v-7.69c0-.15.12-.27.26-.27s.26.12.26.27v7.58l2.66,2.78c.05.05.08.12.08.19v28.76c0,.15-.12.27-.26.27Z"/>
        <path class="cls-2" d="M228.41,258.22s-.03,0-.05,0c-.14-.03-.23-.17-.21-.31l3.1-18.17c.03-.15.16-.24.3-.22.14.03.23.17.21.31l-3.1,18.17c-.02.13-.13.22-.25.22Z"/>
        <path class="cls-2" d="M229.62,267.68s-.05,0-.07-.01c-.14-.04-.22-.19-.18-.33l10.8-39.56c.04-.14.18-.23.32-.18.14.04.22.19.18.33l-10.8,39.56c-.03.12-.14.19-.25.19Z"/>
        <path class="cls-2" d="M226.33,255.22c-.14,0-.26-.12-.26-.27v-2.72h-3.87c-.14,0-.26-.12-.26-.27s.12-.27.26-.27h4.13c.14,0,.26.12.26.27v2.99c0,.15-.12.27-.26.27Z"/>
        <path class="cls-2" d="M238.51,235.57h-4.27c-.14,0-.26-.12-.26-.27s.12-.27.26-.27h4.27c.14,0,.26.12.26.27s-.12.27-.26.27Z"/>
        <path class="cls-2" d="M177.99,252.23c-.07,0-.14-.03-.19-.08l-2.27-2.52c-.1-.11-.09-.28.01-.38.1-.1.27-.1.36.01l2.11,2.34,14.11-11.74-12.32-5.67c-.13-.06-.19-.22-.13-.35.06-.14.21-.2.34-.14l12.71,5.85c.08.04.14.12.15.21.01.09-.02.19-.09.24l-14.63,12.17s-.1.06-.16.06Z"/>
        <path class="cls-2" d="M180.99,277.48c-.09,0-.17-.05-.22-.13l-14.01-25.26c-.06-.11-.04-.25.05-.33l11.08-10.49v-4.87c0-.15.12-.27.26-.27s.26.12.26.27v4.98c0,.08-.03.15-.08.2l-11.01,10.42,13.9,25.07c.07.13.03.29-.09.37-.04.02-.08.04-.13.04Z"/>
        <path class="cls-2" d="M196.83,298.72c-.09,0-.18-.05-.23-.14l-18.48-35.76s-.03-.08-.03-.13v-8.07c0-.15.12-.27.26-.27s.26.12.26.27v8l18.45,35.7c.07.13.02.29-.1.36-.04.02-.08.03-.12.03Z"/>
        <path class="cls-2" d="M190.27,295.62c-.09,0-.18-.05-.23-.14l-7.41-14.31c-.05-.09-.04-.19.01-.28l2.76-4.29c.08-.12.24-.16.36-.07.12.08.15.25.07.37l-2.68,4.16,7.34,14.16c.07.13.02.29-.1.36-.04.02-.08.03-.12.03Z"/>
        <path class="cls-2" d="M154.15,273.49s0,0-.01,0c-.13,0-.23-.11-.24-.24l-1.4-13.82-4.35-4.63c-.05-.05-.07-.12-.07-.19v-6.88c0-.06.02-.12.05-.17l4.86-6.49.64-9.65c0-.1.07-.19.16-.23.09-.04.2-.02.27.06l4.41,4.36c.1.1.11.27,0,.38-.1.11-.26.11-.36,0l-4.01-3.97-.61,9.17c0,.05-.02.1-.05.15l-4.86,6.48v6.68l4.34,4.62s.07.1.07.16l1.24,12.24,3.95-19.2c.01-.06.05-.12.09-.16l6.08-4.92,9.75-18.97c.06-.12.2-.17.32-.12l20.42,7.99c.13.05.2.21.15.35s-.2.21-.33.16l-20.21-7.91-9.67,18.81s-.04.06-.07.09l-6.05,4.9-4.27,20.74c-.03.12-.13.21-.25.21Z"/>
        <path class="cls-2" d="M151.92,278.1h-3.18c-.14,0-.26-.12-.26-.27v-17.47c0-.15.12-.27.26-.27s.26.12.26.27v17.2h2.93c.14,0,.26.12.26.27s-.12.27-.26.27Z"/>
        <path class="cls-2" d="M154.06,302.26c-.14,0-.26-.12-.26-.27v-24.97c0-.15.12-.27.26-.27s.26.12.26.27v24.97c0,.15-.12.27-.26.27Z"/>
        <path class="cls-2" d="M150.14,301.47c-.14,0-.26-.12-.26-.27v-20.1c0-.15.12-.27.26-.27s.26.12.26.27v20.1c0,.15-.12.27-.26.27Z"/>
        <path class="cls-2" d="M152.74,257.08c-.05,0-.11-.02-.15-.05-.11-.09-.14-.26-.05-.38l2.01-2.85.83-6.91c0-.07.04-.13.1-.18l4.77-3.94,8.5-20.88c.06-.14.21-.2.34-.14.13.06.19.22.14.35l-8.53,20.94s-.04.08-.08.11l-4.74,3.91-.83,6.87s-.02.09-.05.13l-2.05,2.9c-.05.07-.13.11-.21.11Z"/>
        <path class="cls-2" d="M168.59,239.35c-.07,0-.13-.03-.18-.08l-4.61-4.81c-.1-.1-.1-.27,0-.38s.26-.1.36,0l4.61,4.81c.1.1.1.27,0,.38-.05.05-.12.08-.18.08Z"/>
        <path class="cls-2" d="M160.59,230.57c-.07,0-.14-.03-.19-.09l-2.15-2.45c-.1-.11-.09-.28.02-.38.11-.1.27-.09.36.02l1.89,2.16,6.22-12.87c.04-.08.11-.13.19-.14.08-.01.16.01.22.08l12.58,13.13c.1.1.1.27,0,.38s-.26.1-.36,0l-12.33-12.87-6.23,12.88c-.04.08-.11.13-.19.15-.01,0-.02,0-.04,0Z"/>
        <path class="cls-2" d="M151.25,209.76c-.15,0-.31-.03-.45-.1-.44-.19-.72-.62-.72-1.12v-14.96c0-.08.03-.15.09-.2l15.69-14.37s.11-.07.17-.07h20.86l3.83-1.96c.13-.07.28-.01.34.12.06.13,0,.29-.12.36l-3.88,1.98s-.07.03-.11.03h-20.83l-15.53,14.22v14.84c0,.33.21.54.4.63.19.08.48.09.71-.15l.93-.97c.1-.1.26-.1.36,0s.1.27,0,.38l-.93.97c-.23.24-.52.36-.82.36Z"/>
        <path class="cls-2" d="M153.56,219.53c-.14,0-.28-.03-.42-.09-.41-.18-.66-.57-.66-1.03v-7.19c0-.15.12-.27.26-.27s.26.12.26.27v7.19c0,.29.18.47.34.54.17.07.41.08.61-.13l1.65-1.72c.1-.1.26-.1.36,0s.1.27,0,.38l-1.65,1.72c-.21.22-.47.33-.75.33Z"/>
        <path class="cls-2" d="M154.13,228.68c-.14,0-.26-.12-.26-.27v-9.4c0-.15.12-.27.26-.27s.26.12.26.27v9.4c0,.15-.12.27-.26.27Z"/>
        <path class="cls-2" d="M158.21,226.74c-.14,0-.26-.12-.26-.27v-5.68c0-.15.12-.27.26-.27s.26.12.26.27v5.68c0,.15-.12.27-.26.27Z"/>
        <path class="cls-2" d="M162.14,221.06c-.14,0-.26-.12-.26-.27v-2.03l-5.76-6.69c-.09-.11-.09-.28.02-.38.11-.1.27-.09.36.02l5.82,6.76s.07.11.07.18v2.13c0,.15-.12.27-.26.27Z"/>
        <path class="cls-2" d="M154.8,197.67c-.05,0-.11-.02-.15-.05-.11-.09-.14-.26-.05-.38l2.87-3.99.48-2.7c.03-.15.16-.24.3-.21.14.03.23.17.21.31l-.5,2.77s-.02.08-.05.11l-2.91,4.04c-.05.07-.13.11-.21.11Z"/>
        <path class="cls-2" d="M163.85,215.17c-.07,0-.13-.03-.18-.08l-7.44-7.77c-.05-.05-.08-.12-.08-.19v-5.43c0-.15.12-.27.26-.27h3.27v-5.71c0-.15.12-.27.26-.27s.26.12.26.27v5.98c0,.15-.12.27-.26.27h-3.27v5.05l7.37,7.69c.1.1.1.27,0,.38-.05.05-.12.08-.18.08Z"/>
        <path class="cls-2" d="M191.98,222.41h-6.52c-.07,0-.13-.03-.18-.08l-22.31-23.29c-.05-.05-.08-.12-.08-.19v-11.99c0-.07.03-.14.08-.19l5.2-5.43c.05-.05.11-.08.18-.08h18.01c.14,0,.26.12.26.27s-.12.27-.26.27h-17.91l-5.05,5.27v11.77l22.16,23.13h6.41c.14,0,.26.12.26.27s-.12.27-.26.27Z"/>
        <path class="cls-2" d="M181.73,228.5c-.07,0-.13-.03-.18-.08l-19.2-20.04c-.05-.05-.08-.12-.08-.19v-4.52c0-.15.12-.27.26-.27s.26.12.26.27v4.41l19.12,19.96c.1.1.1.27,0,.38-.05.05-.12.08-.18.08Z"/>
        <path class="cls-2" d="M194.77,231.38h-2.93c-.07,0-.13-.03-.18-.07l-4.25-4.27c-.1-.1-.11-.27,0-.38.1-.11.26-.11.36,0l4.17,4.19h2.83c.14,0,.26.12.26.27s-.12.27-.26.27Z"/>
        <path class="cls-2" d="M165.52,197.2c-.07,0-.15-.03-.2-.1-.09-.11-.08-.28.03-.38l2.05-1.79v-4.01c0-.08.03-.15.09-.2l3.88-3.49s.1-.06.16-.07l17-.5c.13,0,.26.11.26.26s-.11.27-.25.28l-16.9.49-3.72,3.34v4.01c0,.08-.03.15-.09.21l-2.14,1.87s-.11.06-.17.06Z"/>
        <path class="cls-2" d="M187.32,200.81c-.07,0-.15-.03-.2-.1l-6.25-8.07h-3.9l2.83,5.31c.04.08.04.18,0,.26-.04.08-.12.13-.21.14l-8.98.76c-.15.01-.27-.1-.28-.25-.01-.15.09-.28.24-.29l8.59-.73-2.85-5.35c-.04-.08-.04-.18,0-.27.05-.08.13-.13.22-.13h4.46c.08,0,.15.04.2.1l6.33,8.17c.09.12.07.28-.04.38-.05.04-.11.06-.16.06Z"/>
        <path class="cls-2" d="M194.77,217.49h-9.29c-.07,0-.13-.03-.18-.08l-6.54-6.83c-.05-.05-.08-.12-.08-.19v-1.97l-5.52-5.76c-.1-.1-.1-.27,0-.38s.26-.1.36,0l5.59,5.84c.05.05.08.12.08.19v1.97l6.39,6.67h8.56l-13.75-14.35c-.1-.1-.1-.27,0-.38s.26-.1.36,0l14.19,14.81c.07.08.1.19.06.29s-.13.17-.24.17Z"/>
        <path class="cls-2" d="M194.31,138.85s-.03,0-.04,0c-.04,0-4.24-.79-8.6-3.6-4.41-2.84-6.02-10.6-6.09-10.93-.02-.08,0-.17.06-.23s.13-.1.21-.09c.46.03,11.34.74,14.8,4.35,3.1,3.24,5.2,7.01,5.58,7.71l3.63.68-.23-1.79c-.01-.08.02-.16.07-.22.05-.06.13-.09.21-.08l2.99.23,1.65-6.65c.04-.14.17-.23.31-.19.14.04.22.18.18.33l-1.7,6.87c-.03.13-.13.21-.27.2l-2.89-.22.23,1.83c.01.08-.02.17-.08.23-.06.06-.14.09-.22.07l-4.09-.77c-.08-.01-.14-.06-.18-.14-.02-.04-2.19-4.19-5.55-7.7-2.99-3.12-12.21-4.01-14.12-4.17.37,1.55,2.07,7.84,5.77,10.23,4.27,2.75,8.38,3.52,8.42,3.52.14.03.23.16.21.31-.02.13-.13.22-.25.22Z"/>
        <path class="cls-2" d="M192.65,131.56c-.06,0-.11-.02-.16-.06l-7.94-6.44c-.11-.09-.13-.26-.05-.38.09-.12.25-.14.36-.05l7.94,6.44c.11.09.13.26.05.38-.05.07-.13.1-.2.1Z"/>
        <path class="cls-2" d="M201.47,139.24s0,0-.01,0l-3.94-.17c-.07,0-.14-.04-.18-.09l-3.35-4.07-4.63-2.82c-.12-.07-.16-.24-.09-.37.07-.13.23-.17.35-.1l4.66,2.84s.05.03.07.06l3.3,4.02,3.82.16c.14,0,.25.13.25.28,0,.14-.12.26-.26.26Z"/>
        <path class="cls-2" d="M189.49,135.68c-.13,0-.24-.1-.25-.23-.02-.15.08-.28.22-.3l4.66-.72c.14-.02.27.08.29.23.02.15-.08.28-.22.3l-4.66.72s-.03,0-.04,0Z"/>
        <path class="cls-2" d="M235.84,138.85c-.14,0-.25-.11-.26-.25,0-.15.1-.27.24-.28.02,0,2.03-.15,7.68-2.86,4.99-2.38,5.79-9.37,5.9-10.9-1.26.11-6.48.68-12.38,3.25-6.67,2.91-7.48,7.88-7.49,7.93-.01.09-.08.17-.16.21l-3.38,1.37c-.13.05-.28-.01-.33-.15l-.7-1.82-2.09.33c-.12.02-.24-.05-.28-.17l-2.46-6.75c-.05-.14.02-.29.15-.35.13-.05.28.02.33.16l2.39,6.54,2.09-.33c.12-.02.23.05.28.16l.68,1.77,3.01-1.22c.19-.91,1.42-5.42,7.77-8.19,6.85-2.99,12.79-3.31,12.85-3.32.07,0,.14.02.19.08.05.05.08.13.08.2,0,.09-.35,8.86-6.22,11.67-5.78,2.76-7.79,2.9-7.87,2.9,0,0,0,0-.01,0Z"/>
        <path class="cls-2" d="M238.43,131.56c-.07,0-.13-.03-.19-.08-.1-.11-.1-.28,0-.38l6.22-6.24c.1-.1.26-.1.36,0,.1.11.1.28,0,.38l-6.22,6.24c-.05.05-.11.07-.18.07Z"/>
        <path class="cls-2" d="M232.16,138.85h-3.29c-.14,0-.26-.12-.26-.27s.12-.27.26-.27h3.17l2.8-3.43s.04-.04.06-.06l4.25-2.64c.12-.08.28-.03.35.09.07.13.03.29-.09.37l-4.21,2.61-2.85,3.49c-.05.06-.12.09-.2.09Z"/>
        <path class="cls-2" d="M239.9,135.77s-.02,0-.02,0l-4.87-.44c-.14-.01-.25-.14-.23-.29.01-.15.14-.26.28-.24l4.87.44c.14.01.25.14.23.29-.01.14-.12.25-.26.25Z"/>
        <path class="cls-2" d="M223.46,126.92c-.08,0-.17-.04-.22-.12-.08-.13-.04-.29.08-.37l8.5-5.63s.07-.03.1-.04l6.48-.93c.14-.02.27.08.29.23.02.15-.08.28-.22.3l-6.43.92-8.45,5.59s-.09.04-.14.04Z"/>
        <path class="cls-2" d="M228.27,129.78c-.08,0-.16-.04-.21-.11-.08-.12-.06-.29.05-.38l7.44-5.71s.04-.02.05-.03l27.38-11.71,11.43-4.48,2.91-3.47s.08-.07.14-.09l3.67-.84c.53-.63,4.85-5.86,5.42-11.2-1.53,1.46-6.23,5.83-8.08,6.36-.05.01-.11.01-.15,0l-2.33-.85c-.08-.03-.14-.1-.16-.19s0-.18.06-.25c.13-.15,12.79-14.57,5.92-22.84,0,2.47-.2,10.72-2.59,13.59-2.72,3.26-5.54,5.43-5.57,5.45-.11.09-.28.06-.36-.06-.08-.12-.06-.29.06-.38.03-.02,2.81-2.16,5.48-5.37,2.63-3.16,2.46-13.81,2.46-13.92,0-.11.06-.21.16-.25.1-.04.21-.02.28.06,7.54,7.87-3.35,21.57-5.21,23.78l1.89.69c2.13-.71,8.22-6.62,8.28-6.68.08-.07.19-.09.28-.05s.15.15.15.26c-.27,6.08-5.44,12.02-5.66,12.27-.04.04-.08.07-.13.08l-3.67.84-2.9,3.45s-.06.06-.1.07l-11.49,4.5-27.34,11.69-7.41,5.69s-.1.05-.15.05Z"/>
        <path class="cls-2" d="M268.04,102.28s-.06,0-.08-.01c-.13-.05-.21-.2-.16-.34.01-.04,1.25-3.94-.08-10.68-1.32-6.71-11.71-13-11.82-13.07-.11-.07-.16-.21-.11-.34.05-.13.18-.19.31-.15,6.07,1.81,11.8,7.27,13.43,8.92-.47-11.28-7.59-15.65-7.67-15.69-.11-.07-.16-.22-.11-.34.05-.13.19-.19.32-.15,13.25,4.57,11.49,19.58,11.47,19.73-.02.15-.15.25-.29.23-.14-.02-.24-.15-.22-.3.02-.14,1.56-13.39-9.42-18.47,2.26,2.05,6.29,6.92,6.45,15.65,0,.11-.06.21-.16.25-.1.04-.21.02-.28-.06-.06-.06-5.36-5.77-11.51-8.46,3.16,2.21,9.09,6.97,10.1,12.13,1.36,6.91.11,10.8.06,10.97-.04.11-.14.18-.24.18Z"/>
        <path class="cls-2" d="M231.58,121.54s-.08-.01-.12-.03c-.13-.07-.17-.23-.1-.36,4.73-9.13-1.1-14.78-1.35-15.02-.09-.08-.11-.22-.05-.33.06-.11.18-.16.29-.13,2.96.8,5.57,4.34,6.59,5.88.05-.94.21-2.73.66-5.88.74-5.1-.4-12.94-.41-13.02-.02-.13.06-.26.18-.3.12-.04.25.02.31.14,6.86,15.07.91,22.87-.64,24.55,1.3.25,5.68.5,13.16-5.07,9.03-6.72,5.73-21.86,5.7-22.01-.03-.12.03-.25.14-.31.11-.05.24-.02.32.09,5.8,8.33,3.2,17.03,2.02,20.01,1.02-.79,3.08-2.21,6.93-4.28,6.01-3.24,6.75-11.66,6.75-11.75.01-.15.15-.26.28-.25.14.01.25.14.24.29,0,.09-.77,8.8-7.03,12.18-6.07,3.27-7.66,4.92-7.68,4.93-.09.09-.23.11-.34.03-.1-.08-.13-.23-.07-.34.05-.1,5.03-9.86-.83-19.46.59,3.86,1.62,15.54-6.13,21.3-9.29,6.91-13.87,5.1-14.06,5.02-.08-.04-.14-.11-.16-.21-.01-.09.02-.19.09-.25.08-.07,7.89-7.07,1.56-22.6.29,2.66.72,7.71.19,11.38-.73,5.09-.68,6.63-.68,6.65,0,.12-.07.23-.18.27s-.23-.01-.29-.12c-.03-.05-2.65-4.48-5.79-6.01,1.52,1.96,4.63,7.34.75,14.85-.05.09-.14.14-.23.14Z"/>
        <path class="cls-2" d="M204.89,126.4s-.09-.01-.14-.04l-8.45-5.59-6.43-.92c-.14-.02-.24-.16-.22-.3.02-.15.15-.25.29-.23l6.48.93s.07.02.1.04l8.5,5.63c.12.08.16.25.08.37-.05.08-.13.12-.22.12Z"/>
        <path class="cls-2" d="M200.08,129.26c-.05,0-.11-.02-.15-.05l-7.41-5.69-27.35-11.69-11.48-4.5s-.08-.04-.1-.07l-2.9-3.45-3.67-.84c-.05-.01-.1-.04-.13-.08-.22-.25-5.39-6.19-5.66-12.27,0-.11.05-.21.15-.26.1-.05.21-.03.28.05.06.06,6.15,5.96,8.28,6.68l1.89-.69c-1.85-2.21-12.75-15.91-5.21-23.78.07-.08.19-.1.28-.06.1.04.16.14.16.25,0,.11-.17,10.76,2.46,13.92,2.68,3.22,5.46,5.35,5.48,5.37.12.09.14.26.06.38-.08.12-.24.15-.36.06-.03-.02-2.85-2.19-5.57-5.45-2.39-2.87-2.59-11.12-2.59-13.59-6.87,8.27,5.79,22.7,5.92,22.84.06.07.08.16.06.25s-.08.16-.16.19l-2.33.85c-.05.02-.1.02-.15,0-1.85-.54-6.55-4.9-8.08-6.36.57,5.34,4.89,10.57,5.42,11.2l3.67.84c.05.01.1.04.14.09l2.91,3.47,11.43,4.47,27.39,11.71s.04.02.05.03l7.44,5.71c.11.09.14.26.05.38-.05.07-.13.11-.21.11Z"/>
        <path class="cls-2" d="M160.3,101.76c-.11,0-.21-.07-.24-.18-.05-.16-1.3-4.06.06-10.97,1.02-5.17,6.95-9.92,10.1-12.13-6.15,2.69-11.45,8.39-11.51,8.46-.07.08-.19.1-.28.06-.1-.04-.16-.14-.16-.25.16-8.73,4.19-13.6,6.45-15.65-10.98,5.08-9.44,18.33-9.42,18.47.02.15-.08.28-.22.3-.14.02-.27-.08-.29-.23-.02-.15-1.78-15.16,11.47-19.73.13-.04.26.02.32.15.05.13,0,.27-.11.34-.07.04-7.19,4.43-7.67,15.69,1.64-1.65,7.37-7.11,13.43-8.92.12-.04.26.03.31.15.05.13,0,.27-.11.34-.11.06-10.49,6.35-11.82,13.07-1.33,6.76-.09,10.64-.08,10.68.05.14-.03.29-.16.34-.03,0-.06.01-.08.01Z"/>
        <path class="cls-2" d="M196.77,121.02c-.09,0-.18-.05-.23-.14-3.88-7.51-.77-12.88.75-14.85-3.14,1.52-5.76,5.96-5.79,6.01-.06.1-.18.15-.29.12-.11-.04-.19-.15-.18-.27,0-.02.05-1.56-.68-6.65-.53-3.67-.11-8.72.19-11.38-6.34,15.55,1.48,22.53,1.56,22.6.07.06.1.15.09.25-.01.09-.07.17-.16.21-.19.08-4.77,1.89-14.06-5.02-7.75-5.77-6.71-17.45-6.13-21.3-5.86,9.6-.89,19.36-.83,19.46.06.12.03.26-.07.34-.1.08-.25.07-.34-.03-.02-.02-1.61-1.66-7.68-4.93-6.26-3.38-7.02-12.09-7.03-12.18-.01-.15.09-.28.24-.29.13-.01.27.1.28.25,0,.08.75,8.51,6.75,11.75,3.85,2.07,5.91,3.49,6.93,4.28-1.18-2.98-3.78-11.68,2.02-20.01.07-.1.21-.14.32-.09.11.05.17.18.14.31-.03.15-3.33,15.29,5.7,22.01,7.48,5.57,11.86,5.33,13.16,5.07-1.55-1.68-7.5-9.47-.64-24.55.05-.12.18-.18.31-.14.12.04.2.17.18.3-.01.08-1.15,7.92-.41,13.02.45,3.15.61,4.94.66,5.88,1.02-1.55,3.63-5.08,6.59-5.88.11-.03.24.02.29.13.06.11.03.24-.05.33-.25.24-6.07,5.88-1.35,15.02.07.13.02.29-.1.36-.04.02-.08.03-.12.03Z"/>
      </g>
    </g>
  </g>
</svg>