<?xml version="1.0" encoding="UTF-8"?>
<svg id="Resume_Design" data-name="Resume Design" xmlns="http://www.w3.org/2000/svg" viewBox="0 0 510.22 137.11">
  <defs>
    <style>
      .cls-1 {
        fill: #091a59;
      }

      .cls-2 {
        fill: none;
        stroke: #fff;
        stroke-linecap: round;
        stroke-linejoin: round;
        stroke-width: 14px;
      }

      .cls-3 {
        fill: #62ef80;
      }
    </style>
  </defs>
  <g id="Resume_1st_page" data-name="Resume 1st page">
    <g id="Name_image_part" data-name="Name &amp;amp; image part">
      <g>
        <g>
          <path class="cls-1" d="M77.4,35.97c-4.07,0-4.95.63-5.58,4l-2.76,15.64c-.13.69-.19,1.25-.19,1.69,0,1.94,1.07,2.31,4.33,2.31h14.92c1.44,0,2.19-.63,2.38-1.94l.69-3.69h-9.03c-.94,0-1.38-.5-1.19-1.38l1.19-6.88c.19-.88.75-1.38,1.69-1.38h19.87c.94,0,1.38.5,1.19,1.38l-2.51,14.14c-1.32,7.38-2.38,9.82-11.97,9.82h-25.95c-6.14,0-9.09-2.13-9.09-7,0-.94.12-1.94.31-3l4.2-23.77c1.19-7,3.13-10.01,12.29-10.01h25.95c6.33,0,8.9,1.63,8.9,6.32,0,1-.12,2.19-.38,3.5l-.63,3.5c-.12.88-.75,1.38-1.69,1.38h-9.4c-.94,0-1.38-.5-1.19-1.38l.25-1.31c.06-.19.06-.44.06-.56,0-.94-.56-1.38-1.75-1.38h-14.92Z"/>
          <path class="cls-1" d="M157.01,59.68c-1.25,7.01-3.01,10.01-12.22,10.01h-28.21c-6.33,0-8.96-1.75-8.96-6.44,0-1.06.12-2.19.38-3.5l.44-2.5c.13-.81.69-1.31,1.57-1.31h8.53c.88,0,1.38.5,1.19,1.31l-.19.81c-.06.25-.06.44-.06.63,0,1.13.63,1.63,2.07,1.63h20.69c2.19,0,3.07-.69,3.38-2.44l.56-3.38c.06-.25.06-.5.06-.75,0-1.19-.75-1.69-2.57-1.69h-20.75c-.88,0-1.25-.5-1.13-1.31l1.13-6.25c.12-.81.69-1.31,1.57-1.31h20.06c2.26,0,3.07-.69,3.39-2.44l.56-3c.06-.25.06-.5.06-.75,0-1.19-.75-1.69-2.63-1.69h-18.49c-1.69,0-2.44.69-2.76,2.25l-.12.81c-.31,1.81-2.82,1.31-4.45,1.31h-5.7c-.88,0-1.25-.5-1.13-1.31l.44-2.5c1.32-7.38,2.88-9.94,12.16-9.94h25.95c6.21,0,8.96,2.13,8.96,7.01,0,.94-.06,1.94-.25,3l-.31,2c-.94,5.75-2.32,8.76-7.77,9.69,3.64.75,5.27,2.88,5.27,6.69,0,.88-.06,1.88-.25,2.94l-.44,2.44Z"/>
          <path class="cls-1" d="M230.03,46.36c-1.19,7.01-3.01,10.01-12.22,10.01h-22.63l-2.13,11.95c-.13.88-.75,1.38-1.69,1.38h-9.72c-.94,0-1.38-.5-1.25-1.38l7.27-41.03c.19-.88.75-1.38,1.69-1.38h33.85c6.21,0,8.96,2.13,8.96,7.07,0,.88-.06,1.88-.25,2.94l-1.88,10.45ZM198.82,35.97l-1.88,10.32h16.24c3.64,0,4.33-.56,4.83-3.56l.56-3.19c.12-.69.19-1.25.19-1.69,0-1.56-.88-1.88-3.7-1.88h-16.24Z"/>
          <path class="cls-1" d="M280.43,59.68c-1.25,7.01-3.01,10.01-12.22,10.01h-26.77c-6.14,0-9.09-2.13-9.09-7,0-.94.12-1.94.31-3l4.2-23.77c1.19-7,3.13-10.01,12.29-10.01h26.77c6.21,0,8.96,2.13,8.96,7.07,0,.88-.06,1.88-.25,2.94l-4.2,23.77ZM254.35,35.97c-4.07,0-4.95.63-5.58,4l-2.76,15.64c-.13.69-.19,1.25-.19,1.69,0,1.94,1.07,2.31,4.33,2.31h12.79c4.14,0,4.95-.63,5.52-4l2.76-15.64c.12-.75.19-1.31.19-1.81,0-1.81-1-2.19-4.26-2.19h-12.79Z"/>
          <path class="cls-1" d="M325.12,69.69c-1,0-1.5-.5-1.57-1.38l-1.32-27.65-11.03,27.65c-.31.88-.94,1.38-1.94,1.38h-15.29c-.94,0-1.5-.5-1.57-1.38l-3.38-41.03c0-.88.44-1.38,1.32-1.38h10.16c1,0,1.5.5,1.5,1.38l1.82,32.15,12.73-32.15c.38-.88,1.07-1.38,2.07-1.38h12.47c1,0,1.5.5,1.5,1.38l1.32,32.15,13.23-32.15c.38-.88,1.07-1.38,2.07-1.38h10.34c.88,0,1.19.5.82,1.38l-17.93,41.03c-.31.88-.94,1.38-1.94,1.38h-15.36Z"/>
          <path class="cls-1" d="M407.42,25.9c.94,0,1.38.5,1.19,1.38l-1.32,7.32c-.13.88-.69,1.38-1.63,1.38h-29.96l-1.25,6.82h25.07c.88,0,1.38.5,1.19,1.38l-1.19,6.88c-.12.88-.81,1.38-1.69,1.38h-25.07l-1.25,7.19h29.96c.94,0,1.32.5,1.19,1.38l-1.32,7.32c-.13.88-.69,1.38-1.63,1.38h-41.18c-.94,0-1.38-.5-1.25-1.38l7.27-41.03c.19-.88.75-1.38,1.69-1.38h41.18Z"/>
          <path class="cls-1" d="M458.32,44.6c-1.25,7.01-3.07,10.63-12.35,10.63h-.19l9.72,13.07c.44.56,0,1.38-.69,1.38h-11.47c-1.19,0-1.69-.25-2.26-1.06l-8.46-12.76h-9.72l-2.19,12.45c-.13.88-.75,1.38-1.69,1.38h-9.72c-.94,0-1.38-.5-1.25-1.38l7.27-41.03c.19-.88.75-1.38,1.69-1.38h34.16c6.21,0,8.96,2.13,8.96,7.01,0,.94-.06,1.94-.25,3l-1.57,8.69ZM426.48,35.97l-1.75,9.82h16.55c3.64,0,4.26-.56,4.83-3.56l.44-2.69c.12-.69.19-1.25.19-1.69,0-1.56-.88-1.88-3.7-1.88h-16.55Z"/>
        </g>
        <g>
          <path class="cls-2" d="M77.4,35.97c-4.07,0-4.95.63-5.58,4l-2.76,15.64c-.13.69-.19,1.25-.19,1.69,0,1.94,1.07,2.31,4.33,2.31h14.92c1.44,0,2.19-.63,2.38-1.94l.69-3.69h-9.03c-.94,0-1.38-.5-1.19-1.38l1.19-6.88c.19-.88.75-1.38,1.69-1.38h19.87c.94,0,1.38.5,1.19,1.38l-2.51,14.14c-1.32,7.38-2.38,9.82-11.97,9.82h-25.95c-6.14,0-9.09-2.13-9.09-7,0-.94.12-1.94.31-3l4.2-23.77c1.19-7,3.13-10.01,12.29-10.01h25.95c6.33,0,8.9,1.63,8.9,6.32,0,1-.12,2.19-.38,3.5l-.63,3.5c-.12.88-.75,1.38-1.69,1.38h-9.4c-.94,0-1.38-.5-1.19-1.38l.25-1.31c.06-.19.06-.44.06-.56,0-.94-.56-1.38-1.75-1.38h-14.92Z"/>
          <path class="cls-2" d="M157.01,59.68c-1.25,7.01-3.01,10.01-12.22,10.01h-28.21c-6.33,0-8.96-1.75-8.96-6.44,0-1.06.12-2.19.38-3.5l.44-2.5c.13-.81.69-1.31,1.57-1.31h8.53c.88,0,1.38.5,1.19,1.31l-.19.81c-.06.25-.06.44-.06.63,0,1.13.63,1.63,2.07,1.63h20.69c2.19,0,3.07-.69,3.38-2.44l.56-3.38c.06-.25.06-.5.06-.75,0-1.19-.75-1.69-2.57-1.69h-20.75c-.88,0-1.25-.5-1.13-1.31l1.13-6.25c.12-.81.69-1.31,1.57-1.31h20.06c2.26,0,3.07-.69,3.39-2.44l.56-3c.06-.25.06-.5.06-.75,0-1.19-.75-1.69-2.63-1.69h-18.49c-1.69,0-2.44.69-2.76,2.25l-.12.81c-.31,1.81-2.82,1.31-4.45,1.31h-5.7c-.88,0-1.25-.5-1.13-1.31l.44-2.5c1.32-7.38,2.88-9.94,12.16-9.94h25.95c6.21,0,8.96,2.13,8.96,7.01,0,.94-.06,1.94-.25,3l-.31,2c-.94,5.75-2.32,8.76-7.77,9.69,3.64.75,5.27,2.88,5.27,6.69,0,.88-.06,1.88-.25,2.94l-.44,2.44Z"/>
          <path class="cls-2" d="M230.03,46.36c-1.19,7.01-3.01,10.01-12.22,10.01h-22.63l-2.13,11.95c-.13.88-.75,1.38-1.69,1.38h-9.72c-.94,0-1.38-.5-1.25-1.38l7.27-41.03c.19-.88.75-1.38,1.69-1.38h33.85c6.21,0,8.96,2.13,8.96,7.07,0,.88-.06,1.88-.25,2.94l-1.88,10.45ZM198.82,35.97l-1.88,10.32h16.24c3.64,0,4.33-.56,4.83-3.56l.56-3.19c.12-.69.19-1.25.19-1.69,0-1.56-.88-1.88-3.7-1.88h-16.24Z"/>
          <path class="cls-2" d="M280.43,59.68c-1.25,7.01-3.01,10.01-12.22,10.01h-26.77c-6.14,0-9.09-2.13-9.09-7,0-.94.12-1.94.31-3l4.2-23.77c1.19-7,3.13-10.01,12.29-10.01h26.77c6.21,0,8.96,2.13,8.96,7.07,0,.88-.06,1.88-.25,2.94l-4.2,23.77ZM254.35,35.97c-4.07,0-4.95.63-5.58,4l-2.76,15.64c-.13.69-.19,1.25-.19,1.69,0,1.94,1.07,2.31,4.33,2.31h12.79c4.14,0,4.95-.63,5.52-4l2.76-15.64c.12-.75.19-1.31.19-1.81,0-1.81-1-2.19-4.26-2.19h-12.79Z"/>
          <path class="cls-2" d="M325.12,69.69c-1,0-1.5-.5-1.57-1.38l-1.32-27.65-11.03,27.65c-.31.88-.94,1.38-1.94,1.38h-15.29c-.94,0-1.5-.5-1.57-1.38l-3.38-41.03c0-.88.44-1.38,1.32-1.38h10.16c1,0,1.5.5,1.5,1.38l1.82,32.15,12.73-32.15c.38-.88,1.07-1.38,2.07-1.38h12.47c1,0,1.5.5,1.5,1.38l1.32,32.15,13.23-32.15c.38-.88,1.07-1.38,2.07-1.38h10.34c.88,0,1.19.5.82,1.38l-17.93,41.03c-.31.88-.94,1.38-1.94,1.38h-15.36Z"/>
          <path class="cls-2" d="M407.42,25.9c.94,0,1.38.5,1.19,1.38l-1.32,7.32c-.13.88-.69,1.38-1.63,1.38h-29.96l-1.25,6.82h25.07c.88,0,1.38.5,1.19,1.38l-1.19,6.88c-.12.88-.81,1.38-1.69,1.38h-25.07l-1.25,7.19h29.96c.94,0,1.32.5,1.19,1.38l-1.32,7.32c-.13.88-.69,1.38-1.63,1.38h-41.18c-.94,0-1.38-.5-1.25-1.38l7.27-41.03c.19-.88.75-1.38,1.69-1.38h41.18Z"/>
          <path class="cls-2" d="M458.32,44.6c-1.25,7.01-3.07,10.63-12.35,10.63h-.19l9.72,13.07c.44.56,0,1.38-.69,1.38h-11.47c-1.19,0-1.69-.25-2.26-1.06l-8.46-12.76h-9.72l-2.19,12.45c-.13.88-.75,1.38-1.69,1.38h-9.72c-.94,0-1.38-.5-1.25-1.38l7.27-41.03c.19-.88.75-1.38,1.69-1.38h34.16c6.21,0,8.96,2.13,8.96,7.01,0,.94-.06,1.94-.25,3l-1.57,8.69ZM426.48,35.97l-1.75,9.82h16.55c3.64,0,4.26-.56,4.83-3.56l.44-2.69c.12-.69.19-1.25.19-1.69,0-1.56-.88-1.88-3.7-1.88h-16.55Z"/>
        </g>
        <g>
          <path class="cls-1" d="M77.4,35.97c-4.07,0-4.95.63-5.58,4l-2.76,15.64c-.13.69-.19,1.25-.19,1.69,0,1.94,1.07,2.31,4.33,2.31h14.92c1.44,0,2.19-.63,2.38-1.94l.69-3.69h-9.03c-.94,0-1.38-.5-1.19-1.38l1.19-6.88c.19-.88.75-1.38,1.69-1.38h19.87c.94,0,1.38.5,1.19,1.38l-2.51,14.14c-1.32,7.38-2.38,9.82-11.97,9.82h-25.95c-6.14,0-9.09-2.13-9.09-7,0-.94.12-1.94.31-3l4.2-23.77c1.19-7,3.13-10.01,12.29-10.01h25.95c6.33,0,8.9,1.63,8.9,6.32,0,1-.12,2.19-.38,3.5l-.63,3.5c-.12.88-.75,1.38-1.69,1.38h-9.4c-.94,0-1.38-.5-1.19-1.38l.25-1.31c.06-.19.06-.44.06-.56,0-.94-.56-1.38-1.75-1.38h-14.92Z"/>
          <path class="cls-1" d="M157.01,59.68c-1.25,7.01-3.01,10.01-12.22,10.01h-28.21c-6.33,0-8.96-1.75-8.96-6.44,0-1.06.12-2.19.38-3.5l.44-2.5c.13-.81.69-1.31,1.57-1.31h8.53c.88,0,1.38.5,1.19,1.31l-.19.81c-.06.25-.06.44-.06.63,0,1.13.63,1.63,2.07,1.63h20.69c2.19,0,3.07-.69,3.38-2.44l.56-3.38c.06-.25.06-.5.06-.75,0-1.19-.75-1.69-2.57-1.69h-20.75c-.88,0-1.25-.5-1.13-1.31l1.13-6.25c.12-.81.69-1.31,1.57-1.31h20.06c2.26,0,3.07-.69,3.39-2.44l.56-3c.06-.25.06-.5.06-.75,0-1.19-.75-1.69-2.63-1.69h-18.49c-1.69,0-2.44.69-2.76,2.25l-.12.81c-.31,1.81-2.82,1.31-4.45,1.31h-5.7c-.88,0-1.25-.5-1.13-1.31l.44-2.5c1.32-7.38,2.88-9.94,12.16-9.94h25.95c6.21,0,8.96,2.13,8.96,7.01,0,.94-.06,1.94-.25,3l-.31,2c-.94,5.75-2.32,8.76-7.77,9.69,3.64.75,5.27,2.88,5.27,6.69,0,.88-.06,1.88-.25,2.94l-.44,2.44Z"/>
          <path class="cls-1" d="M230.03,46.36c-1.19,7.01-3.01,10.01-12.22,10.01h-22.63l-2.13,11.95c-.13.88-.75,1.38-1.69,1.38h-9.72c-.94,0-1.38-.5-1.25-1.38l7.27-41.03c.19-.88.75-1.38,1.69-1.38h33.85c6.21,0,8.96,2.13,8.96,7.07,0,.88-.06,1.88-.25,2.94l-1.88,10.45ZM198.82,35.97l-1.88,10.32h16.24c3.64,0,4.33-.56,4.83-3.56l.56-3.19c.12-.69.19-1.25.19-1.69,0-1.56-.88-1.88-3.7-1.88h-16.24Z"/>
          <path class="cls-1" d="M280.43,59.68c-1.25,7.01-3.01,10.01-12.22,10.01h-26.77c-6.14,0-9.09-2.13-9.09-7,0-.94.12-1.94.31-3l4.2-23.77c1.19-7,3.13-10.01,12.29-10.01h26.77c6.21,0,8.96,2.13,8.96,7.07,0,.88-.06,1.88-.25,2.94l-4.2,23.77ZM254.35,35.97c-4.07,0-4.95.63-5.58,4l-2.76,15.64c-.13.69-.19,1.25-.19,1.69,0,1.94,1.07,2.31,4.33,2.31h12.79c4.14,0,4.95-.63,5.52-4l2.76-15.64c.12-.75.19-1.31.19-1.81,0-1.81-1-2.19-4.26-2.19h-12.79Z"/>
          <path class="cls-1" d="M325.12,69.69c-1,0-1.5-.5-1.57-1.38l-1.32-27.65-11.03,27.65c-.31.88-.94,1.38-1.94,1.38h-15.29c-.94,0-1.5-.5-1.57-1.38l-3.38-41.03c0-.88.44-1.38,1.32-1.38h10.16c1,0,1.5.5,1.5,1.38l1.82,32.15,12.73-32.15c.38-.88,1.07-1.38,2.07-1.38h12.47c1,0,1.5.5,1.5,1.38l1.32,32.15,13.23-32.15c.38-.88,1.07-1.38,2.07-1.38h10.34c.88,0,1.19.5.82,1.38l-17.93,41.03c-.31.88-.94,1.38-1.94,1.38h-15.36Z"/>
          <path class="cls-1" d="M407.42,25.9c.94,0,1.38.5,1.19,1.38l-1.32,7.32c-.13.88-.69,1.38-1.63,1.38h-29.96l-1.25,6.82h25.07c.88,0,1.38.5,1.19,1.38l-1.19,6.88c-.12.88-.81,1.38-1.69,1.38h-25.07l-1.25,7.19h29.96c.94,0,1.32.5,1.19,1.38l-1.32,7.32c-.13.88-.69,1.38-1.63,1.38h-41.18c-.94,0-1.38-.5-1.25-1.38l7.27-41.03c.19-.88.75-1.38,1.69-1.38h41.18Z"/>
          <path class="cls-1" d="M458.32,44.6c-1.25,7.01-3.07,10.63-12.35,10.63h-.19l9.72,13.07c.44.56,0,1.38-.69,1.38h-11.47c-1.19,0-1.69-.25-2.26-1.06l-8.46-12.76h-9.72l-2.19,12.45c-.13.88-.75,1.38-1.69,1.38h-9.72c-.94,0-1.38-.5-1.25-1.38l7.27-41.03c.19-.88.75-1.38,1.69-1.38h34.16c6.21,0,8.96,2.13,8.96,7.01,0,.94-.06,1.94-.25,3l-1.57,8.69ZM426.48,35.97l-1.75,9.82h16.55c3.64,0,4.26-.56,4.83-3.56l.44-2.69c.12-.69.19-1.25.19-1.69,0-1.56-.88-1.88-3.7-1.88h-16.55Z"/>
        </g>
      </g>
      <g>
        <g>
          <path class="cls-1" d="M82.29,98.23c-.48,2.72-1.24,3.96-4.85,3.96h-9.67l-.91,5.25c-.05.33-.3.53-.66.53h-2.97c-.38,0-.53-.2-.48-.53l2.94-16.7c.08-.33.28-.53.66-.53h13.2c2.41,0,3.55.89,3.55,2.82,0,.36-.03.74-.1,1.14l-.71,4.06ZM69.32,93.53l-.96,5.33h7.61c1.78,0,2.16-.3,2.41-1.78l.3-1.78c.05-.3.08-.56.08-.76,0-.81-.43-1.02-1.83-1.02h-7.61Z"/>
          <path class="cls-1" d="M102.31,103.91c-.51,2.79-1.27,4.06-4.95,4.06h-10.2c-2.46,0-3.65-.91-3.65-2.92,0-.36.03-.74.1-1.14l1.7-9.64c.48-2.79,1.32-4.06,4.97-4.06h10.2c2.46,0,3.63.91,3.63,2.89,0,.36-.03.74-.1,1.17l-1.7,9.64ZM91.8,93.53c-1.88,0-2.31.33-2.59,1.9l-1.29,7.31c-.05.33-.1.58-.1.81,0,.89.51,1.09,2,1.09h5.96c1.9,0,2.33-.33,2.59-1.9l1.29-7.31c.05-.33.1-.61.1-.84,0-.86-.51-1.07-2-1.07h-5.96Z"/>
          <path class="cls-1" d="M121.06,107.97c-.41,0-.58-.18-.63-.53l-1.01-12.51-5.43,12.51c-.13.35-.38.53-.79.53h-4.72c-.38,0-.61-.18-.63-.53l-1.73-16.7c-.03-.33.15-.53.51-.53h3.07c.41,0,.61.18.61.53l1.22,13.88,5.96-13.88c.15-.35.41-.53.81-.53h3.83c.41,0,.61.18.63.53l1.04,13.91,6.12-13.91c.15-.35.43-.53.84-.53h3.15c.33,0,.46.2.3.53l-7.64,16.7c-.13.35-.38.53-.79.53h-4.72Z"/>
          <path class="cls-1" d="M153.01,90.21c.36,0,.53.2.46.53l-.38,2.26c-.08.33-.3.53-.66.53h-12.59l-.71,3.86h10.61c.36,0,.56.18.48.53l-.38,2.18c-.05.33-.3.53-.66.53h-10.61l-.71,4.01h12.59c.38,0,.53.2.48.53l-.41,2.26c-.05.33-.28.53-.63.53h-16.14c-.38,0-.53-.2-.48-.53l2.94-16.7c.08-.33.28-.53.66-.53h16.14Z"/>
          <path class="cls-1" d="M170.49,90.21c2.44,0,3.55.89,3.55,2.79,0,.36-.03.74-.1,1.17l-.63,3.5c-.48,2.74-1.22,4.14-4.87,4.14h-.66l4.36,5.63c.2.2.03.53-.25.53h-3.55c-.46,0-.66-.1-.89-.41l-4.01-5.58h-4.82l-.94,5.46c-.05.33-.3.53-.66.53h-2.97c-.38,0-.53-.2-.48-.53l2.94-16.7c.08-.33.28-.53.66-.53h13.32ZM160.14,93.53l-.91,5.13h7.74c1.78,0,2.13-.3,2.39-1.78l.28-1.57c.05-.3.08-.58.08-.79,0-.81-.43-.99-1.83-.99h-7.74Z"/>
          <path class="cls-1" d="M198.35,107.97c-.41,0-.58-.18-.63-.53l-1.01-12.51-5.43,12.51c-.13.35-.38.53-.79.53h-4.72c-.38,0-.61-.18-.63-.53l-1.73-16.7c-.03-.33.15-.53.51-.53h3.07c.41,0,.61.18.61.53l1.22,13.88,5.96-13.88c.15-.35.41-.53.81-.53h3.83c.41,0,.61.18.63.53l1.04,13.91,6.12-13.91c.15-.35.43-.53.84-.53h3.15c.33,0,.46.2.3.53l-7.64,16.7c-.13.35-.38.53-.79.53h-4.72Z"/>
          <path class="cls-1" d="M214.67,107.44c-.05.33-.3.53-.66.53h-2.97c-.38,0-.53-.2-.48-.53l2.94-16.7c.08-.33.28-.53.66-.53h2.97c.36,0,.56.2.48.53l-2.94,16.7Z"/>
          <path class="cls-1" d="M226.21,93.53h-6.29c-.36,0-.53-.2-.48-.53l.41-2.26c.08-.33.28-.53.66-.53h16.67c.38,0,.53.2.46.53l-.38,2.26c-.08.33-.28.53-.66.53h-6.27l-2.46,13.91c-.05.33-.3.53-.66.53h-2.97c-.36,0-.53-.2-.48-.53l2.46-13.91Z"/>
          <path class="cls-1" d="M255.21,107.44c-.05.33-.28.53-.63.53h-2.99c-.36,0-.53-.2-.48-.53l1.22-6.78h-10.07l-1.19,6.78c-.05.33-.3.53-.66.53h-2.97c-.38,0-.53-.2-.48-.53l2.94-16.7c.08-.33.28-.53.66-.53h2.97c.36,0,.56.2.48.53l-1.17,6.6h10.07l1.14-6.6c.08-.33.3-.53.66-.53h2.99c.36,0,.53.2.46.53l-2.94,16.7Z"/>
          <path class="cls-1" d="M280.41,104.57h-9.59l-1.73,2.89c-.18.35-.43.51-.84.51h-3.3c-.33,0-.43-.25-.23-.56l10.35-16.7c.2-.35.46-.51.89-.51h4.31c.43,0,.61.15.71.51l4.47,16.7c.08.3-.08.56-.38.56h-3.22c-.43,0-.63-.15-.71-.51l-.74-2.89ZM272.78,101.32h6.85l-2-8.04-4.85,8.04Z"/>
          <path class="cls-1" d="M314.49,98.23c-.48,2.72-1.24,3.96-4.85,3.96h-9.67l-.91,5.25c-.05.33-.3.53-.66.53h-2.97c-.38,0-.53-.2-.48-.53l2.94-16.7c.08-.33.28-.53.66-.53h13.2c2.41,0,3.55.89,3.55,2.82,0,.36-.03.74-.1,1.14l-.71,4.06ZM301.52,93.53l-.96,5.33h7.61c1.78,0,2.16-.3,2.41-1.78l.3-1.78c.05-.3.08-.56.08-.76,0-.81-.43-1.02-1.83-1.02h-7.61Z"/>
          <path class="cls-1" d="M327.48,104.65c1.9,0,2.33-.33,2.59-1.9l2.13-12c.08-.33.3-.53.66-.53h2.97c.36,0,.56.2.48.53l-2.31,13.17c-.51,2.79-1.27,4.06-4.95,4.06h-9.54c-2.49,0-3.68-.91-3.68-2.89,0-.36.05-.74.13-1.17l2.31-13.17c.08-.33.28-.53.66-.53h2.97c.38,0,.56.2.48.53l-2.13,12c-.05.3-.08.56-.08.79,0,.91.48,1.12,2,1.12h5.3Z"/>
          <path class="cls-1" d="M353.82,90.21c2.44,0,3.55.89,3.55,2.79,0,.36-.03.74-.1,1.17l-.63,3.5c-.48,2.74-1.22,4.14-4.87,4.14h-.66l4.36,5.63c.2.2.03.53-.25.53h-3.55c-.46,0-.66-.1-.89-.41l-4.01-5.58h-4.82l-.94,5.46c-.05.33-.3.53-.66.53h-2.97c-.38,0-.53-.2-.48-.53l2.94-16.7c.08-.33.28-.53.66-.53h13.32ZM343.47,93.53l-.91,5.13h7.74c1.78,0,2.13-.3,2.39-1.78l.28-1.57c.05-.3.08-.58.08-.79,0-.81-.43-.99-1.83-.99h-7.74Z"/>
          <path class="cls-1" d="M377.57,98.23c-.48,2.72-1.24,3.96-4.85,3.96h-9.67l-.91,5.25c-.05.33-.3.53-.66.53h-2.97c-.38,0-.53-.2-.48-.53l2.94-16.7c.08-.33.28-.53.66-.53h13.2c2.41,0,3.55.89,3.55,2.82,0,.36-.03.74-.1,1.14l-.71,4.06ZM364.61,93.53l-.96,5.33h7.61c1.78,0,2.16-.3,2.41-1.78l.3-1.78c.05-.3.08-.56.08-.76,0-.81-.43-1.02-1.83-1.02h-7.61Z"/>
          <path class="cls-1" d="M397.59,103.91c-.51,2.79-1.27,4.06-4.95,4.06h-10.2c-2.46,0-3.65-.91-3.65-2.92,0-.36.03-.74.1-1.14l1.7-9.64c.48-2.79,1.32-4.06,4.97-4.06h10.2c2.46,0,3.63.91,3.63,2.89,0,.36-.03.74-.1,1.17l-1.7,9.64ZM387.09,93.53c-1.88,0-2.31.33-2.59,1.9l-1.29,7.31c-.05.33-.1.58-.1.81,0,.89.51,1.09,2,1.09h5.96c1.9,0,2.33-.33,2.59-1.9l1.29-7.31c.05-.33.1-.61.1-.84,0-.86-.51-1.07-2-1.07h-5.96Z"/>
          <path class="cls-1" d="M412.61,104.65c1.34,0,1.73-.33,1.9-1.4l.23-1.22c.03-.18.05-.35.05-.51,0-.66-.38-.89-1.47-.89h-8.15c-2.44,0-3.55-.89-3.55-2.84,0-.33.03-.71.1-1.12l.46-2.51c.46-2.72,1.19-3.96,4.82-3.96h9.44c2.51,0,3.55.71,3.55,2.61,0,.41-.05.84-.13,1.34l-.13.79c-.05.36-.3.53-.69.53h-2.84c-.38,0-.53-.18-.48-.53l.05-.25c.03-.13.03-.25.03-.35,0-.56-.3-.81-1.04-.81h-6.7c-1.34,0-1.73.33-1.93,1.4l-.18.99c-.05.23-.08.46-.08.61,0,.66.38.86,1.5.86h8.12c2.44,0,3.55.86,3.55,2.79,0,.35-.03.74-.1,1.17l-.46,2.66c-.48,2.72-1.19,3.96-4.85,3.96h-10c-2.51,0-3.6-.71-3.6-2.59,0-.41.08-.86.15-1.37l.13-.79c.08-.36.3-.53.66-.53h2.87c.36,0,.56.18.48.53l-.05.25c-.03.13-.03.23-.03.33,0,.56.3.84,1.02.84h7.33Z"/>
          <path class="cls-1" d="M440.55,90.21c.36,0,.53.2.46.53l-.38,2.26c-.08.33-.3.53-.66.53h-12.59l-.71,3.86h10.61c.36,0,.56.18.48.53l-.38,2.18c-.05.33-.3.53-.66.53h-10.61l-.71,4.01h12.59c.38,0,.53.2.48.53l-.41,2.26c-.05.33-.28.53-.63.53h-16.14c-.38,0-.53-.2-.48-.53l2.94-16.7c.08-.33.28-.53.66-.53h16.14Z"/>
        </g>
        <g>
          <path class="cls-3" d="M82.29,98.23c-.48,2.72-1.24,3.96-4.85,3.96h-9.67l-.91,5.25c-.05.33-.3.53-.66.53h-2.97c-.38,0-.53-.2-.48-.53l2.94-16.7c.08-.33.28-.53.66-.53h13.2c2.41,0,3.55.89,3.55,2.82,0,.36-.03.74-.1,1.14l-.71,4.06ZM69.32,93.53l-.96,5.33h7.61c1.78,0,2.16-.3,2.41-1.78l.3-1.78c.05-.3.08-.56.08-.76,0-.81-.43-1.02-1.83-1.02h-7.61Z"/>
          <path class="cls-3" d="M102.31,103.91c-.51,2.79-1.27,4.06-4.95,4.06h-10.2c-2.46,0-3.65-.91-3.65-2.92,0-.36.03-.74.1-1.14l1.7-9.64c.48-2.79,1.32-4.06,4.97-4.06h10.2c2.46,0,3.63.91,3.63,2.89,0,.36-.03.74-.1,1.17l-1.7,9.64ZM91.8,93.53c-1.88,0-2.31.33-2.59,1.9l-1.29,7.31c-.05.33-.1.58-.1.81,0,.89.51,1.09,2,1.09h5.96c1.9,0,2.33-.33,2.59-1.9l1.29-7.31c.05-.33.1-.61.1-.84,0-.86-.51-1.07-2-1.07h-5.96Z"/>
          <path class="cls-3" d="M121.06,107.97c-.41,0-.58-.18-.63-.53l-1.01-12.51-5.43,12.51c-.13.35-.38.53-.79.53h-4.72c-.38,0-.61-.18-.63-.53l-1.73-16.7c-.03-.33.15-.53.51-.53h3.07c.41,0,.61.18.61.53l1.22,13.88,5.96-13.88c.15-.35.41-.53.81-.53h3.83c.41,0,.61.18.63.53l1.04,13.91,6.12-13.91c.15-.35.43-.53.84-.53h3.15c.33,0,.46.2.3.53l-7.64,16.7c-.13.35-.38.53-.79.53h-4.72Z"/>
          <path class="cls-3" d="M153.01,90.21c.36,0,.53.2.46.53l-.38,2.26c-.08.33-.3.53-.66.53h-12.59l-.71,3.86h10.61c.36,0,.56.18.48.53l-.38,2.18c-.05.33-.3.53-.66.53h-10.61l-.71,4.01h12.59c.38,0,.53.2.48.53l-.41,2.26c-.05.33-.28.53-.63.53h-16.14c-.38,0-.53-.2-.48-.53l2.94-16.7c.08-.33.28-.53.66-.53h16.14Z"/>
          <path class="cls-3" d="M170.49,90.21c2.44,0,3.55.89,3.55,2.79,0,.36-.03.74-.1,1.17l-.63,3.5c-.48,2.74-1.22,4.14-4.87,4.14h-.66l4.36,5.63c.2.2.03.53-.25.53h-3.55c-.46,0-.66-.1-.89-.41l-4.01-5.58h-4.82l-.94,5.46c-.05.33-.3.53-.66.53h-2.97c-.38,0-.53-.2-.48-.53l2.94-16.7c.08-.33.28-.53.66-.53h13.32ZM160.14,93.53l-.91,5.13h7.74c1.78,0,2.13-.3,2.39-1.78l.28-1.57c.05-.3.08-.58.08-.79,0-.81-.43-.99-1.83-.99h-7.74Z"/>
          <path class="cls-3" d="M198.35,107.97c-.41,0-.58-.18-.63-.53l-1.01-12.51-5.43,12.51c-.13.35-.38.53-.79.53h-4.72c-.38,0-.61-.18-.63-.53l-1.73-16.7c-.03-.33.15-.53.51-.53h3.07c.41,0,.61.18.61.53l1.22,13.88,5.96-13.88c.15-.35.41-.53.81-.53h3.83c.41,0,.61.18.63.53l1.04,13.91,6.12-13.91c.15-.35.43-.53.84-.53h3.15c.33,0,.46.2.3.53l-7.64,16.7c-.13.35-.38.53-.79.53h-4.72Z"/>
          <path class="cls-3" d="M214.67,107.44c-.05.33-.3.53-.66.53h-2.97c-.38,0-.53-.2-.48-.53l2.94-16.7c.08-.33.28-.53.66-.53h2.97c.36,0,.56.2.48.53l-2.94,16.7Z"/>
          <path class="cls-3" d="M226.21,93.53h-6.29c-.36,0-.53-.2-.48-.53l.41-2.26c.08-.33.28-.53.66-.53h16.67c.38,0,.53.2.46.53l-.38,2.26c-.08.33-.28.53-.66.53h-6.27l-2.46,13.91c-.05.33-.3.53-.66.53h-2.97c-.36,0-.53-.2-.48-.53l2.46-13.91Z"/>
          <path class="cls-3" d="M255.21,107.44c-.05.33-.28.53-.63.53h-2.99c-.36,0-.53-.2-.48-.53l1.22-6.78h-10.07l-1.19,6.78c-.05.33-.3.53-.66.53h-2.97c-.38,0-.53-.2-.48-.53l2.94-16.7c.08-.33.28-.53.66-.53h2.97c.36,0,.56.2.48.53l-1.17,6.6h10.07l1.14-6.6c.08-.33.3-.53.66-.53h2.99c.36,0,.53.2.46.53l-2.94,16.7Z"/>
          <path class="cls-3" d="M280.41,104.57h-9.59l-1.73,2.89c-.18.35-.43.51-.84.51h-3.3c-.33,0-.43-.25-.23-.56l10.35-16.7c.2-.35.46-.51.89-.51h4.31c.43,0,.61.15.71.51l4.47,16.7c.08.3-.08.56-.38.56h-3.22c-.43,0-.63-.15-.71-.51l-.74-2.89ZM272.78,101.32h6.85l-2-8.04-4.85,8.04Z"/>
          <path class="cls-3" d="M314.49,98.23c-.48,2.72-1.24,3.96-4.85,3.96h-9.67l-.91,5.25c-.05.33-.3.53-.66.53h-2.97c-.38,0-.53-.2-.48-.53l2.94-16.7c.08-.33.28-.53.66-.53h13.2c2.41,0,3.55.89,3.55,2.82,0,.36-.03.74-.1,1.14l-.71,4.06ZM301.52,93.53l-.96,5.33h7.61c1.78,0,2.16-.3,2.41-1.78l.3-1.78c.05-.3.08-.56.08-.76,0-.81-.43-1.02-1.83-1.02h-7.61Z"/>
          <path class="cls-3" d="M327.48,104.65c1.9,0,2.33-.33,2.59-1.9l2.13-12c.08-.33.3-.53.66-.53h2.97c.36,0,.56.2.48.53l-2.31,13.17c-.51,2.79-1.27,4.06-4.95,4.06h-9.54c-2.49,0-3.68-.91-3.68-2.89,0-.36.05-.74.13-1.17l2.31-13.17c.08-.33.28-.53.66-.53h2.97c.38,0,.56.2.48.53l-2.13,12c-.05.3-.08.56-.08.79,0,.91.48,1.12,2,1.12h5.3Z"/>
          <path class="cls-3" d="M353.82,90.21c2.44,0,3.55.89,3.55,2.79,0,.36-.03.74-.1,1.17l-.63,3.5c-.48,2.74-1.22,4.14-4.87,4.14h-.66l4.36,5.63c.2.2.03.53-.25.53h-3.55c-.46,0-.66-.1-.89-.41l-4.01-5.58h-4.82l-.94,5.46c-.05.33-.3.53-.66.53h-2.97c-.38,0-.53-.2-.48-.53l2.94-16.7c.08-.33.28-.53.66-.53h13.32ZM343.47,93.53l-.91,5.13h7.74c1.78,0,2.13-.3,2.39-1.78l.28-1.57c.05-.3.08-.58.08-.79,0-.81-.43-.99-1.83-.99h-7.74Z"/>
          <path class="cls-3" d="M377.57,98.23c-.48,2.72-1.24,3.96-4.85,3.96h-9.67l-.91,5.25c-.05.33-.3.53-.66.53h-2.97c-.38,0-.53-.2-.48-.53l2.94-16.7c.08-.33.28-.53.66-.53h13.2c2.41,0,3.55.89,3.55,2.82,0,.36-.03.74-.1,1.14l-.71,4.06ZM364.61,93.53l-.96,5.33h7.61c1.78,0,2.16-.3,2.41-1.78l.3-1.78c.05-.3.08-.56.08-.76,0-.81-.43-1.02-1.83-1.02h-7.61Z"/>
          <path class="cls-3" d="M397.59,103.91c-.51,2.79-1.27,4.06-4.95,4.06h-10.2c-2.46,0-3.65-.91-3.65-2.92,0-.36.03-.74.1-1.14l1.7-9.64c.48-2.79,1.32-4.06,4.97-4.06h10.2c2.46,0,3.63.91,3.63,2.89,0,.36-.03.74-.1,1.17l-1.7,9.64ZM387.09,93.53c-1.88,0-2.31.33-2.59,1.9l-1.29,7.31c-.05.33-.1.58-.1.81,0,.89.51,1.09,2,1.09h5.96c1.9,0,2.33-.33,2.59-1.9l1.29-7.31c.05-.33.1-.61.1-.84,0-.86-.51-1.07-2-1.07h-5.96Z"/>
          <path class="cls-3" d="M412.61,104.65c1.34,0,1.73-.33,1.9-1.4l.23-1.22c.03-.18.05-.35.05-.51,0-.66-.38-.89-1.47-.89h-8.15c-2.44,0-3.55-.89-3.55-2.84,0-.33.03-.71.1-1.12l.46-2.51c.46-2.72,1.19-3.96,4.82-3.96h9.44c2.51,0,3.55.71,3.55,2.61,0,.41-.05.84-.13,1.34l-.13.79c-.05.36-.3.53-.69.53h-2.84c-.38,0-.53-.18-.48-.53l.05-.25c.03-.13.03-.25.03-.35,0-.56-.3-.81-1.04-.81h-6.7c-1.34,0-1.73.33-1.93,1.4l-.18.99c-.05.23-.08.46-.08.61,0,.66.38.86,1.5.86h8.12c2.44,0,3.55.86,3.55,2.79,0,.35-.03.74-.1,1.17l-.46,2.66c-.48,2.72-1.19,3.96-4.85,3.96h-10c-2.51,0-3.6-.71-3.6-2.59,0-.41.08-.86.15-1.37l.13-.79c.08-.36.3-.53.66-.53h2.87c.36,0,.56.18.48.53l-.05.25c-.03.13-.03.23-.03.33,0,.56.3.84,1.02.84h7.33Z"/>
          <path class="cls-3" d="M440.55,90.21c.36,0,.53.2.46.53l-.38,2.26c-.08.33-.3.53-.66.53h-12.59l-.71,3.86h10.61c.36,0,.56.18.48.53l-.38,2.18c-.05.33-.3.53-.66.53h-10.61l-.71,4.01h12.59c.38,0,.53.2.48.53l-.41,2.26c-.05.33-.28.53-.63.53h-16.14c-.38,0-.53-.2-.48-.53l2.94-16.7c.08-.33.28-.53.66-.53h16.14Z"/>
        </g>
      </g>
    </g>
  </g>
</svg>